<svg width="20" height="22" viewBox="0 0 20 22" fill="none" xmlns="http://www.w3.org/2000/svg">
    <path fill-rule="evenodd" clip-rule="evenodd"
        d="M9.99988 0.25C8.52109 0.25 7.10288 0.816293 6.05722 1.8243C5.01156 2.83231 4.42411 4.19946 4.42411 5.625V6.96875H3.03017C2.687 6.96873 2.35589 7.09073 2.10023 7.3114C1.84457 7.53207 1.68234 7.83589 1.64459 8.16469L0.250647 20.2584C0.229087 20.4462 0.248852 20.6363 0.308653 20.8162C0.368453 20.9962 0.466945 21.1619 0.597698 21.3027C0.728452 21.4434 0.888527 21.556 1.06748 21.6331C1.24643 21.7102 1.44023 21.75 1.63623 21.75H18.3635C18.5595 21.75 18.7533 21.7102 18.9323 21.6331C19.1112 21.556 19.2713 21.4434 19.4021 21.3027C19.5328 21.1619 19.6313 20.9962 19.6911 20.8162C19.7509 20.6363 19.7707 20.4462 19.7491 20.2584L18.3552 8.16469C18.3174 7.83589 18.1552 7.53207 17.8995 7.3114C17.6439 7.09073 17.3128 6.96873 16.9696 6.96875H15.5757V5.625C15.5757 4.19946 14.9882 2.83231 13.9425 1.8243C12.8969 0.816293 11.4787 0.25 9.99988 0.25ZM12.7878 6.96875V5.625C12.7878 4.91223 12.494 4.22865 11.9712 3.72465C11.4484 3.22065 10.7393 2.9375 9.99988 2.9375C9.26049 2.9375 8.55138 3.22065 8.02855 3.72465C7.50572 4.22865 7.212 4.91223 7.212 5.625V6.96875H12.7878ZM4.42411 11C4.42411 10.6436 4.57097 10.3018 4.83239 10.0498C5.0938 9.79782 5.44836 9.65625 5.81805 9.65625C6.18775 9.65625 6.5423 9.79782 6.80372 10.0498C7.06513 10.3018 7.212 10.6436 7.212 11C7.212 11.3564 7.06513 11.6982 6.80372 11.9502C6.5423 12.2022 6.18775 12.3438 5.81805 12.3438C5.44836 12.3438 5.0938 12.2022 4.83239 11.9502C4.57097 11.6982 4.42411 11.3564 4.42411 11ZM14.1817 9.65625C13.812 9.65625 13.4575 9.79782 13.196 10.0498C12.9346 10.3018 12.7878 10.6436 12.7878 11C12.7878 11.3564 12.9346 11.6982 13.196 11.9502C13.4575 12.2022 13.812 12.3438 14.1817 12.3438C14.5514 12.3438 14.906 12.2022 15.1674 11.9502C15.4288 11.6982 15.5757 11.3564 15.5757 11C15.5757 10.6436 15.4288 10.3018 15.1674 10.0498C14.906 9.79782 14.5514 9.65625 14.1817 9.65625Z"
        fill="#9B74BA" />
</svg>