<svg width="24" height="25" viewBox="0 0 24 25" fill="none" xmlns="http://www.w3.org/2000/svg">
    <path
        d="M12 21.4334L11.4808 21.9526C11.5489 22.0209 11.6298 22.0751 11.7189 22.1121C11.808 22.149 11.9035 22.1681 12 22.1681C12.0965 22.1681 12.192 22.149 12.2811 22.1121C12.3702 22.0751 12.4511 22.0209 12.5192 21.9526L12 21.4334ZM12 6.76676L11.4808 7.28596C11.5489 7.35426 11.6298 7.40844 11.7189 7.44541C11.808 7.48238 11.9035 7.50141 12 7.50141C12.0965 7.50141 12.192 7.48238 12.2811 7.44541C12.3702 7.40844 12.4511 7.35426 12.5192 7.28596L12 6.76676ZM12.5192 20.9142L3.77053 12.167L2.7336 13.204L11.4808 21.9526L12.5192 20.9142ZM20.2295 12.167L11.4808 20.9142L12.5192 21.9526L21.2664 13.204L20.2295 12.167ZM10.0669 5.87063L11.4808 7.28596L12.5192 6.24756L11.1039 4.8337L10.0669 5.87063ZM12.5192 7.28596L13.9331 5.87063L12.8961 4.8337L11.4808 6.24756L12.5192 7.28596ZM17.0805 3.1001C15.5112 3.1001 14.0064 3.72343 12.8961 4.8337L13.9331 5.87063C14.768 5.0361 15.9001 4.56714 17.0805 4.56676V3.1001ZM21.5333 9.01956C21.5333 10.2002 21.064 11.3325 20.228 12.167L21.2664 13.204C22.3761 12.0941 22.9997 10.589 23 9.01956H21.5333ZM23 9.01956C23 7.44962 22.3763 5.94398 21.2662 4.83387C20.1561 3.72375 18.6505 3.1001 17.0805 3.1001V4.56676C18.2615 4.56676 19.3941 5.0359 20.2291 5.87096C21.0642 6.70602 21.5333 7.83861 21.5333 9.01956H23ZM6.91947 4.56676C8.10013 4.56676 9.2324 5.0361 10.0669 5.8721L11.1039 4.8337C9.99404 3.72396 8.48893 3.1004 6.91947 3.1001V4.56676ZM2.46667 9.01956C2.46667 7.83861 2.9358 6.70602 3.77086 5.87096C4.60592 5.0359 5.73851 4.56676 6.91947 4.56676V3.1001C5.34953 3.1001 3.84389 3.72375 2.73377 4.83387C1.62366 5.94398 1 7.44962 1 9.01956H2.46667ZM3.77053 12.167C3.35692 11.7538 3.03022 11.2632 2.80625 10.7231C2.58228 10.1831 2.46689 9.60421 2.46667 9.01956H1C1 10.5889 1.62333 12.0937 2.7336 13.204L3.77053 12.167Z"
        fill="#9B74BA" />
</svg>