<svg width="25" height="24" viewBox="0 0 25 24" fill="none" xmlns="http://www.w3.org/2000/svg">
    <g clip-path="url(#clip0_469_3901)">
        <mask id="mask0_469_3901" style="mask-type:alpha" maskUnits="userSpaceOnUse" x="0" y="0" width="25" height="24">
            <rect x="0.757812" width="24" height="24" fill="#D9D9D9" />
        </mask>
        <g mask="url(#mask0_469_3901)">
            <path
                d="M12.7578 10.5C14.967 10.5 16.7578 8.70914 16.7578 6.5C16.7578 4.29086 14.967 2.5 12.7578 2.5C10.5487 2.5 8.75781 4.29086 8.75781 6.5C8.75781 8.70914 10.5487 10.5 12.7578 10.5Z"
                fill="#9B74BA" stroke="#9B74BA" stroke-width="1.5" />
            <path
                d="M20.7578 18C20.7578 20.485 20.7578 22.5 12.7578 22.5C4.75781 22.5 4.75781 20.485 4.75781 18C4.75781 15.515 8.33981 13.5 12.7578 13.5C17.1758 13.5 20.7578 15.515 20.7578 18Z"
                fill="#9B74BA" stroke="#9B74BA" stroke-width="1.5" />
        </g>
    </g>
    <defs>
        <clipPath id="clip0_469_3901">
            <rect width="24" height="24" fill="white" transform="translate(0.757812)" />
        </clipPath>
    </defs>
</svg>