<svg width="24" height="25" viewBox="0 0 24 25" fill="none" xmlns="http://www.w3.org/2000/svg">
    <mask id="mask0_3146_4861" style="mask-type:alpha" maskUnits="userSpaceOnUse" x="0" y="0" width="24" height="25">
        <rect y="0.5" width="24" height="24" fill="#D9D9D9" />
    </mask>
    <g mask="url(#mask0_3146_4861)">
        <path
            d="M12 11C14.2091 11 16 9.20914 16 7C16 4.79086 14.2091 3 12 3C9.79086 3 8 4.79086 8 7C8 9.20914 9.79086 11 12 11Z"
            fill="#9B74BA" stroke="#9B74BA" stroke-width="1.5" />
        <path
            d="M20 18.5C20 20.985 20 23 12 23C4 23 4 20.985 4 18.5C4 16.015 7.582 14 12 14C16.418 14 20 16.015 20 18.5Z"
            fill="#9B74BA" stroke="#9B74BA" stroke-width="1.5" />
    </g>
</svg>