<svg width="24" height="24" viewBox="0 0 24 24" fill="none" xmlns="http://www.w3.org/2000/svg">
    <path
        d="M15.6262 10.25V5.75C15.6262 4.75544 15.2311 3.80161 14.5279 3.09835C13.8246 2.39509 12.8708 2 11.8762 2C10.8816 2 9.92782 2.39509 9.22456 3.09835C8.52129 3.80161 8.12621 4.75544 8.12621 5.75V10.25M19.4822 8.257L20.7452 20.257C20.8152 20.922 20.2952 21.5 19.6262 21.5H4.12621C3.96841 21.5002 3.81235 21.4671 3.66815 21.4031C3.52396 21.339 3.39485 21.2453 3.28923 21.1281C3.1836 21.0108 3.10382 20.8727 3.05506 20.7226C3.0063 20.5726 2.98966 20.4139 3.00621 20.257L4.27021 8.257C4.29936 7.98056 4.42983 7.7247 4.63646 7.53876C4.84308 7.35281 5.11123 7.24995 5.38921 7.25H18.3632C18.9392 7.25 19.4222 7.685 19.4822 8.257ZM8.50121 10.25C8.50121 10.3495 8.4617 10.4448 8.39137 10.5152C8.32104 10.5855 8.22566 10.625 8.12621 10.625C8.02675 10.625 7.93137 10.5855 7.86104 10.5152C7.79071 10.4448 7.75121 10.3495 7.75121 10.25C7.75121 10.1505 7.79071 10.0552 7.86104 9.98483C7.93137 9.91451 8.02675 9.875 8.12621 9.875C8.22566 9.875 8.32104 9.91451 8.39137 9.98483C8.4617 10.0552 8.50121 10.1505 8.50121 10.25ZM16.0012 10.25C16.0012 10.3495 15.9617 10.4448 15.8914 10.5152C15.821 10.5855 15.7257 10.625 15.6262 10.625C15.5267 10.625 15.4314 10.5855 15.361 10.5152C15.2907 10.4448 15.2512 10.3495 15.2512 10.25C15.2512 10.1505 15.2907 10.0552 15.361 9.98483C15.4314 9.91451 15.5267 9.875 15.6262 9.875C15.7257 9.875 15.821 9.91451 15.8914 9.98483C15.9617 10.0552 16.0012 10.1505 16.0012 10.25Z"
        stroke="#555555" stroke-width="1.5" stroke-linecap="round" stroke-linejoin="round" />
</svg>