<svg width="24" height="25" viewBox="0 0 24 25" fill="none" xmlns="http://www.w3.org/2000/svg">
    <path
        d="M15.75 11V6.5C15.75 5.50544 15.3549 4.55161 14.6516 3.84835C13.9484 3.14509 12.9945 2.75 12 2.75C11.0054 2.75 10.0516 3.14509 9.34833 3.84835C8.64507 4.55161 8.24998 5.50544 8.24998 6.5V11M19.606 9.007L20.869 21.007C20.939 21.672 20.419 22.25 19.75 22.25H4.24998C4.09219 22.2502 3.93613 22.2171 3.79193 22.1531C3.64774 22.089 3.51863 21.9953 3.41301 21.8781C3.30738 21.7608 3.2276 21.6227 3.17884 21.4726C3.13008 21.3226 3.11343 21.1639 3.12999 21.007L4.39399 9.007C4.42314 8.73056 4.55361 8.4747 4.76024 8.28876C4.96686 8.10281 5.23501 7.99995 5.51298 8H18.487C19.063 8 19.546 8.435 19.606 9.007ZM8.62498 11C8.62498 11.0995 8.58548 11.1948 8.51515 11.2652C8.44482 11.3355 8.34944 11.375 8.24998 11.375C8.15053 11.375 8.05515 11.3355 7.98482 11.2652C7.91449 11.1948 7.87498 11.0995 7.87498 11C7.87498 10.9005 7.91449 10.8052 7.98482 10.7348C8.05515 10.6645 8.15053 10.625 8.24998 10.625C8.34944 10.625 8.44482 10.6645 8.51515 10.7348C8.58548 10.8052 8.62498 10.9005 8.62498 11ZM16.125 11C16.125 11.0995 16.0855 11.1948 16.0152 11.2652C15.9448 11.3355 15.8494 11.375 15.75 11.375C15.6505 11.375 15.5551 11.3355 15.4848 11.2652C15.4145 11.1948 15.375 11.0995 15.375 11C15.375 10.9005 15.4145 10.8052 15.4848 10.7348C15.5551 10.6645 15.6505 10.625 15.75 10.625C15.8494 10.625 15.9448 10.6645 16.0152 10.7348C16.0855 10.8052 16.125 10.9005 16.125 11Z"
        stroke="#555555" stroke-width="1.5" stroke-linecap="round" stroke-linejoin="round" />
</svg>