<svg width="24" height="24" viewBox="0 0 24 24" fill="none" xmlns="http://www.w3.org/2000/svg">
    <path
        d="M12 20.9334L11.4808 21.4526C11.5489 21.5209 11.6298 21.5751 11.7189 21.6121C11.808 21.649 11.9035 21.6681 12 21.6681C12.0965 21.6681 12.192 21.649 12.2811 21.6121C12.3702 21.5751 12.4511 21.5209 12.5192 21.4526L12 20.9334ZM12 6.26676L11.4808 6.78596C11.5489 6.85426 11.6298 6.90844 11.7189 6.94541C11.808 6.98238 11.9035 7.00141 12 7.00141C12.0965 7.00141 12.192 6.98238 12.2811 6.94541C12.3702 6.90844 12.4511 6.85426 12.5192 6.78596L12 6.26676ZM12.5192 20.4142L3.77053 11.667L2.7336 12.704L11.4808 21.4526L12.5192 20.4142ZM20.2295 11.667L11.4808 20.4142L12.5192 21.4526L21.2664 12.704L20.2295 11.667ZM10.0669 5.37063L11.4808 6.78596L12.5192 5.74756L11.1039 4.3337L10.0669 5.37063ZM12.5192 6.78596L13.9331 5.37063L12.8961 4.3337L11.4808 5.74756L12.5192 6.78596ZM17.0805 2.6001C15.5112 2.6001 14.0064 3.22343 12.8961 4.3337L13.9331 5.37063C14.768 4.5361 15.9001 4.06714 17.0805 4.06676V2.6001ZM21.5333 8.51956C21.5333 9.70023 21.064 10.8325 20.228 11.667L21.2664 12.704C22.3761 11.5941 22.9997 10.089 23 8.51956H21.5333ZM23 8.51956C23 6.94962 22.3763 5.44398 21.2662 4.33387C20.1561 3.22375 18.6505 2.6001 17.0805 2.6001V4.06676C18.2615 4.06676 19.3941 4.5359 20.2291 5.37096C21.0642 6.20602 21.5333 7.33861 21.5333 8.51956H23ZM6.91947 4.06676C8.10013 4.06676 9.2324 4.5361 10.0669 5.3721L11.1039 4.3337C9.99404 3.22396 8.48893 2.6004 6.91947 2.6001V4.06676ZM2.46667 8.51956C2.46667 7.33861 2.9358 6.20602 3.77086 5.37096C4.60592 4.5359 5.73851 4.06676 6.91947 4.06676V2.6001C5.34953 2.6001 3.84389 3.22375 2.73377 4.33387C1.62366 5.44398 1 6.94962 1 8.51956H2.46667ZM3.77053 11.667C3.35692 11.2538 3.03022 10.7632 2.80625 10.2231C2.58228 9.68309 2.46689 9.10421 2.46667 8.51956H1C1 10.0889 1.62333 11.5937 2.7336 12.704L3.77053 11.667Z"
        fill="#555555" />
</svg>