<svg width="24" height="24" viewBox="0 0 24 24" fill="none" xmlns="http://www.w3.org/2000/svg">
    <mask id="mask0_469_4000" style="mask-type:alpha" maskUnits="userSpaceOnUse" x="0" y="0" width="24" height="24">
        <rect width="24" height="24" fill="#D9D9D9" />
    </mask>
    <g mask="url(#mask0_469_4000)">
        <path
            d="M12 10.5C14.2091 10.5 16 8.70914 16 6.5C16 4.29086 14.2091 2.5 12 2.5C9.79086 2.5 8 4.29086 8 6.5C8 8.70914 9.79086 10.5 12 10.5Z"
            stroke="#555555" stroke-width="1.5" />
        <path
            d="M20 18C20 20.485 20 22.5 12 22.5C4 22.5 4 20.485 4 18C4 15.515 7.582 13.5 12 13.5C16.418 13.5 20 15.515 20 18Z"
            stroke="#555555" stroke-width="1.5" />
    </g>
</svg>