<?xml version="1.0" encoding="utf-8"?>
<!-- Generator: Adobe Illustrator 27.6.1, SVG Export Plug-In . SVG Version: 6.00 Build 0)  -->
<svg version="1.1" id="Layer_1" xmlns="http://www.w3.org/2000/svg" xmlns:xlink="http://www.w3.org/1999/xlink" x="0px"
    y="0px" viewBox="0 0 4000 4000" style="enable-background:new 0 0 4000 4000;" xml:space="preserve">
    <style type="text/css">
        .st0 {
            fill: #FFFFFF;
        }

        .st1 {
            opacity: 0.2;
        }

        .st2 {
            fill: #000072;
        }

        .st3 {
            fill: #5C0099;
        }

        .st4 {
            opacity: 0.3;
        }

        .st5 {
            fill: #FFA606;
        }

        .st6 {
            opacity: 0.5;
        }

        .st7 {
            fill: #FA508E;
        }

        .st8 {
            fill: #F27E80;
        }

        .st9 {
            fill: #FF0660;
        }

        .st10 {
            opacity: 0.7;
        }
    </style>
    <g>
        <path class="st0" d="M2847.4,2533.6c-98.3,248.3-307.6,230.4-428,154.7c-38.8-24.4-68.4-54.8-82-84.2l55.3-309.6l24.9-139.8
		l5.8-32.5c0,0,18.6,73.6,56.1,140.8c41.3,73.7,105.5,139.6,193.1,91.9C2672.7,2355.1,2904.5,2389.2,2847.4,2533.6z" />
    </g>
    <g class="st1">
        <path class="st2" d="M2847.4,2533.6c-129.9,328.4-454.1,191.2-509.9,70.6l37.8-275.9c113.6,134.8,241,586,462.1,106.3
		C2856.3,2459.7,2863.8,2492.1,2847.4,2533.6z" />
    </g>
    <g>
        <g>
            <path class="st3" d="M2587.3,2755.1c-54,0-111-15.2-161.3-43.2c-49.1-27.3-87-64-104-100.7c-3.9-8.5-0.2-18.6,8.3-22.6
			c8.5-3.9,18.6-0.2,22.6,8.3c28.3,61.1,134.4,127.1,241.5,124.1c74.1-2.1,175.4-37.4,237.2-193.7c11.1-28.1,10.5-52.3-1.9-73.8
			c-18.6-32.1-60.4-52.6-92.2-64.1c-27.1-9.8-51.6-14.8-61.9-16.7c-37.3,18.7-73.8,20.5-108.6,5.3
			c-107.2-47-157.8-243.2-159.9-251.5c-2.3-9.1,3.2-18.3,12.3-20.6c9.1-2.3,18.3,3.2,20.6,12.3l0,0c0.5,1.9,48.6,188.4,140.6,228.7
			c26.7,11.7,54.2,9.5,84.1-6.8l5-2.7l5.6,0.8c5.7,0.8,139.4,21.3,183.9,98.3c17.7,30.6,19.1,65.4,4.1,103.3
			c-28.7,72.5-68.5,127.7-118.3,164.3c-43.8,32.2-94.1,49.3-149.6,50.9C2592.6,2755.1,2589.9,2755.1,2587.3,2755.1z" />
        </g>
    </g>
    <g>
        <path class="st0"
            d="M2289.8,2652.5c0,0,153.8,60.9,170.2,211.5c22.8,209.9-153.2,328.3-153.2,328.3h-353.5v-556.2" />
    </g>
    <g class="st1">
        <path class="st2" d="M2458.1,2952.6c-24.3,154.4-151.3,239.8-151.3,239.8h-353.5v-60h227.5c116.4,0,224.1-65.7,273.4-171.2
		C2455.6,2958.4,2456.9,2955.5,2458.1,2952.6z" />
    </g>
    <g>
        <path class="st2" d="M2312,3209.4h-375.7v-573.2c0-9.4,7.6-17,17-17s17,7.6,17,17v539.2h331c11.5-8.6,45.7-35.9,77.7-79.5
		c51.5-70.3,73.1-147.7,64.1-230c-6.3-57.6-34.7-108.2-84.5-150.4c-38-32.2-74.7-47-75.1-47.2c-8.7-3.5-13-13.4-9.5-22.1
		c3.5-8.7,13.3-13,22-9.5c1.7,0.7,41.5,16.7,83.6,52.1c24.9,20.9,45.5,44.4,61.2,69.7c19.9,31.9,32,66.8,36,103.7
		c5.5,50.3,0.4,99.7-15,147c-12.3,37.7-31.2,73.9-56.2,107.8c-42.4,57.6-87.5,88.2-89.4,89.5L2312,3209.4z" />
    </g>
    <g>
        <path class="st0" d="M2262.5,3178.3c50.5-28.9,132.9-10.8,145.7,22.7c10.3,26.8,6.8,75.3-28.1,97.4c-28,17.7-68.6,17.6-169.1,17.3
		h-498.4v-392.9L2262.5,3178.3z" />
    </g>
    <g class="st4">
        <path class="st2" d="M2380.1,3298.3c-28,17.7-68.6,17.6-169.1,17.3h-498.4v-392.9l6,2.8v329.8h498.4
		c100.5,0.3,141.2,0.3,169.1-17.3c11.4-7.2,19.5-17.2,24.8-28.3C2417.5,3237.3,2411.5,3278.5,2380.1,3298.3z" />
    </g>
    <g>
        <g>
            <path class="st3" d="M2261.1,3175.8c8-6.3,17.3-11.2,27.1-14.7c9.8-3.6,20-5.7,30.4-6.9c5.2-0.5,10.4-0.9,15.7-0.9
			c5.3,0,10.5,0.2,15.8,0.7c5.3,0.5,10.6,1.4,15.8,2.5c5.3,1.1,10.5,2.6,15.8,4.4c5.2,1.8,10.4,4.1,15.5,7c5.1,2.9,10.2,6.4,14.9,11
			c2.3,2.3,4.6,4.9,6.7,7.9c0.5,0.7,1,1.5,1.5,2.3c0.5,0.8,0.9,1.6,1.4,2.4c0.4,0.8,0.9,1.7,1.3,2.6c0.2,0.4,0.4,0.9,0.6,1.3
			l0.4,1.1c2.2,5.8,3.7,11.5,4.7,17.2c2,11.4,2.2,22.9,0.6,34.4c-1.6,11.4-4.8,22.8-10.4,33.6c-5.6,10.7-13.6,20.6-23.6,28.2
			c-2.5,1.9-5.1,3.7-7.7,5.2c-2.6,1.6-5.3,3-8,4.3c-5.4,2.6-11,4.6-16.4,6.2c-5.5,1.6-10.9,2.8-16.2,3.7c-5.3,0.9-10.6,1.7-15.8,2.2
			c-10.4,1.1-20.5,1.7-30.5,2c-40.1,1.2-78.9,0.2-118.1-0.1l-58.7-0.5c-19.6-0.2-39.2-0.1-58.7-0.2l-58.7,0.1l-58.7,0.4
			c-78.3,0.6-156.6,1.7-234.9,1l-18.7-0.2l0.1-18.3l0.4-49.1l0.6-49.1c0.4-32.7,1-65.5,2.1-98.2c1-32.7,2.5-65.5,4.5-98.2
			c1-16.4,2.1-32.7,3.4-49.1c1.3-16.4,2.8-32.7,4.7-49.1c0.2-1.6,1.6-2.7,3.2-2.5c1.3,0.2,2.4,1.2,2.5,2.5
			c1.9,16.4,3.4,32.7,4.7,49.1c1.3,16.4,2.5,32.7,3.4,49.1c2,32.7,3.5,65.5,4.5,98.2c1,32.7,1.6,65.5,2.1,98.2l0.6,49.1l0.4,49.1
			l-18.5-18.5c78.3-0.7,156.6,0.4,234.9,1l58.7,0.4l58.7,0.1c19.6-0.1,39.2-0.1,58.7-0.2l58.7-0.5l29.4-0.3l29.3-0.2
			c19.5-0.1,39-0.3,58.1-0.9c9.5-0.4,19-0.8,28.1-1.7c9.1-0.9,17.9-2.2,25.7-4.4c3.9-1.1,7.6-2.4,11.1-3.9c3.4-1.6,6.7-3.4,9.5-5.5
			c5.7-4.1,10.5-9.6,14.2-16.1c3.7-6.5,6.2-14.1,7.6-22c1.3-7.9,1.6-16.2,0.5-24.2c-0.5-3.9-1.4-7.8-2.5-11.2l-0.4-1.1
			c-0.1-0.2-0.1-0.5-0.3-0.8c-0.1-0.3-0.2-0.5-0.3-0.8c-0.1-0.3-0.3-0.6-0.4-0.8c-0.6-1.1-1.5-2.4-2.5-3.6c-2.1-2.5-4.8-5-8-7.3
			c-3.2-2.3-6.8-4.4-10.6-6.3c-3.8-1.9-7.9-3.6-12-5.1c-4.2-1.5-8.5-2.8-12.8-3.9c-4.4-1.1-8.8-2-13.3-2.8
			c-4.5-0.7-9.1-1.3-13.7-1.6c-18.3-1.3-37.2,0.4-55.2,7.2l0,0c-1.5,0.6-3.1-0.2-3.7-1.7C2259.7,3177.9,2260.1,3176.6,2261.1,3175.8
			z" />
        </g>
    </g>
    <g>
        <path class="st0" d="M2777.8,2279.5c0-17.4,16.4-91.5,65.3-74.9c63.8,21.6-5.5,137.7-9,167.8" />
    </g>
    <g>
        <g>
            <path class="st3" d="M2834.2,2389.4c-0.7,0-1.3,0-2-0.1c-9.3-1.1-16-9.5-14.9-18.9c1.1-9.7,6.4-23.3,13-40.4
			c11.9-30.8,30-77.4,19.9-99c-2.4-5-6.2-8.2-12.5-10.3c-7.4-2.5-13.2-1.9-18.6,2c-15.8,11.3-24.3,45.4-24.3,56.8
			c0,9.4-7.6,17-17,17s-17-7.6-17-17c0-15.2,9.1-63.4,38.4-84.4c14.4-10.4,31.5-12.6,49.3-6.6c14.9,5.1,26.1,14.8,32.4,28.1
			c16.3,34.8-4.1,87.3-19,125.7c-5.1,13.1-10.3,26.6-11,32.1C2850,2383,2842.7,2389.4,2834.2,2389.4z" />
        </g>
    </g>
    <g>
        <path class="st0" d="M816.1,2764.1c7.5,25.1,16,49,25.5,71.8c189.2,456.3,750.6,446,750.6,446l17.1-128.6
		c-17.5-3-35.1-6.2-52.8-9.9c-214.8-43.8-438.9-136.7-531.5-309.3c-42-78.3-57-170-50.7-251.7c9.4-121.8,66.2-221.6,151.6-222.8
		c54.1-0.7,61,62,61.8,78.2c4.3,94.5,42.5,148.3,128.2,139.5c26.8-2.8,57.5-26.1,77.4-64.5c25-48.3,32.8-120.6-6.2-205.8
		C1238.4,1981.8,631.7,2143.9,816.1,2764.1z" />
    </g>
    <g>
        <path class="st5" d="M895,2241.3c-16.8,62.6-35.8,198.9,109.6,215.9c26.5-58.2,68.4-96.9,121.4-97.6c54.1-0.7,61,62,61.8,78.2
		c4.3,94.5,42.5,148.3,128.2,139.5c26.8-2.8,57.5-26.1,77.4-64.5c25-48.3,32.8-120.6-6.2-205.8C1298,2112,1044.2,2092.2,895,2241.3z
		" />
    </g>
    <g class="st6">
        <path class="st0" d="M1387.2,2346.9c14.7,32,22.7,62.2,25.7,90c4.5-40.1-1.7-87.5-25.7-140c-131.9-288.2-623.7-193.4-605.1,264
		C799.9,2146.9,1260.2,2069.5,1387.2,2346.9z" />
    </g>
    <g class="st1">
        <path class="st2" d="M974.4,2582.3c9.4-121.8,66.2-221.6,151.6-222.8c54.1-0.7,61,62,61.8,78.2c4.3,94.5,42.5,148.3,128.2,139.5
		c26.8-2.8,57.5-26.1,77.4-64.5c-25,13.1-54.2,16.8-83,14.4c-66.1-5.4-79.4-86.2-88.8-171c-10.9-98.9-172.4-105.5-218.8,25.4
		C977,2454.2,972.4,2527.4,974.4,2582.3z" />
    </g>
    <g class="st1">
        <path class="st2" d="M841.6,2835.9c189.2,456.3,750.6,446,750.6,446l17.1-128.6c-17.5-3-35.1-6.2-52.8-9.9
		c-82.5,19.2-255.6,36-474.9-72.9C984.1,3022.2,904.6,2933.5,841.6,2835.9z" />
    </g>
    <g>
        <g>
            <path class="st3" d="M1588.9,3298.9c-11.1,0-46.7-0.5-97.8-6.6c-56.1-6.7-142.1-21.6-233.7-54.9
			c-103.3-37.5-192.5-90.2-265.1-156.6c-90.9-83.2-155.7-188.2-192.4-311.9c-24.4-82-36.2-160-35.2-231.9
			c1-66.4,12.8-127.7,35.3-182.2c40.5-98,114.6-171.4,208.8-206.8c74.1-27.8,153.9-29.3,224.9-4.2c36.6,12.9,69.4,32.4,97.7,57.9
			c29.8,26.9,53.8,59.9,71.3,98.1c20,43.8,29.7,87.1,28.6,128.8c-0.9,36-10.1,70.1-26.4,98.7c-21.7,37.9-55,63.5-87,66.8
			c-40.6,4.2-73.6-4.4-98.1-25.6c-29.7-25.6-46.1-69.3-48.9-130c-0.2-5.2-1.6-23.2-9.2-38.8c-7.8-16-19.1-23.4-35.4-23.2
			c-46.8,0.7-77.3,36-94.7,65.6c-50.1,85-64.1,248.5,8.5,383.9c109.5,204.2,405.5,282.2,572.2,310.6c9.3,1.6,15.5,10.3,13.9,19.6
			s-10.3,15.5-19.6,13.9c-130.5-22.2-249.9-58.7-345.4-105.7c-118.8-58.5-203.3-133.3-251-222.3c-34.7-64.6-53.9-143.5-54.1-222
			c-0.2-74.8,16.2-144.1,46.2-195.1c14.8-25.1,32.4-44.9,52.3-58.9c21.8-15.2,45.7-23.1,71.2-23.5c0.4,0,0.8,0,1.2,0
			c54.2,0,75.8,50.7,77.8,94.4c2.3,51,14.8,86.6,37.1,105.8c17.4,15,41.1,20.7,72.4,17.5c21-2.2,44.9-21.7,61-49.8
			c14.4-25.2,43-94.9-3.6-196.5c-68.2-148.9-228.2-180.1-351.1-134c-149.6,56.2-288.7,241.6-188.3,579.4
			c63.5,213.7,210.1,363.7,435.5,445.9c169.5,61.8,322.4,59.8,324,59.8c9.4-0.2,17.1,7.3,17.3,16.7s-7.3,17.1-16.7,17.3
			C1592.3,3298.9,1591,3298.9,1588.9,3298.9z" />
        </g>
    </g>
    <g>
        <path class="st0"
            d="M2453.3,2443.5c-4.8,88.3-17.4,170.6-33.9,244.8c-35.1,158.2-87.5,279.8-117.1,345.6
		c-77.8,173.1-117.1,209.1-184.5,251.4c-72.5,45.4-283.1,60.2-283.1,60.2h-161.6c-65,0-177.1-18.6-199-37.6
		c-21.8-19.1-29.6-49.9-49.3-71.8c-168.3-186.8-73.7-385.9,34.4-598.5c65.6-129,126-267.2,171-376c48.8-117.9,79.6-201.4,79.6-201.4
		s642.4-80.8,676.4,0c9.7,23.2,18.3,46.3,25.7,69.1l5.6,25.6l26.5,122.1l5.4,24.6C2454.8,2350.3,2455.8,2397.7,2453.3,2443.5z" />
    </g>
    <g class="st1">
        <path class="st2" d="M2375.3,2848.3c-26.7,80.8-54.3,144.3-72.9,185.6c-77.8,173.1-117.1,209.1-184.5,251.4
		c-72.5,45.4-283.1,60.2-283.1,60.2h-135.6l47.9-260.9h87.8c0,0,203.6-421.2,213.2-336.3C2087.9,3098.2,2291.1,2978.2,2375.3,2848.3
		z" />
    </g>
    <g>
        <g>
            <path class="st3"
                d="M2409.6,2130.1c-6.3-14.5-12.8-29-19.4-43.3c-3.4-7.1-6.7-14.2-10.2-21.3l-0.6-1.3c-0.2-0.4-0.5-1-0.6-1.1
			c-0.3-0.5-0.6-1-1-1.4c-0.8-1-1.7-1.9-2.8-2.8c-2.2-1.8-5.1-3.4-8.1-4.8c-6.2-2.8-13.3-4.8-20.6-6.4c-7.3-1.6-14.8-2.8-22.4-3.7
			c-15.2-1.9-30.7-2.9-46.2-3.5c-15.6-0.6-31.2-0.8-46.8-0.7c-15.7,0-31.3,0.3-47,0.7c-31.4,0.8-62.9,2.2-94.3,3.8
			c-31.5,1.7-62.9,3.8-94.4,6.3c-31.5,2.4-62.9,5.1-94.4,8.1c-31.4,3-62.9,6.1-94.3,9.6c-15.7,1.7-31.4,3.4-47.1,5.3
			c-15.7,1.8-31.4,3.7-46.9,5.6l15.4-12.2c-6.3,17.1-12.8,33.9-19.3,50.8c-6.5,16.9-13.1,33.7-19.7,50.5
			c-13.3,33.6-26.9,67.1-40.8,100.4c-27.8,66.7-56.5,133.1-86.6,198.8c-15.1,32.9-30.4,65.6-46.2,98.2c-7.9,16.3-15.9,32.5-24,48.7
			c-8.1,16.2-16.4,32.4-24.5,48.3c-16.3,32-32.4,64.1-47.3,96.4c-14.9,32.4-28.7,65.1-40.2,98.4c-11.4,33.3-20.5,67.3-25.3,101.6
			c-4.8,34.3-5.1,68.9,0.5,102.5c1.5,8.4,3.1,16.7,5.3,25l0.8,3.1l0.9,3.1c0.6,2,1.1,4.1,1.8,6.1c1.3,4,2.6,8.1,4.1,12.1
			c1.4,4,3,8,4.5,11.9c0.8,2,1.7,3.9,2.5,5.9l1.3,2.9l1.3,2.9l2.7,5.8l2.9,5.7l1.4,2.9l1.5,2.8l3.1,5.6c8.4,14.9,18,29.3,28.5,42.9
			c5.3,6.8,10.8,13.5,16.5,20l4.4,5c1.8,2,3.5,4.1,5.1,6.1c3.2,4.1,6,8.4,8.6,12.5c5.2,8.4,9.5,16.6,13.7,24.1
			c4.2,7.5,8.5,14.4,13.2,20c1.2,1.4,2.4,2.7,3.6,4c0.6,0.6,1.2,1.2,1.9,1.8l1,0.9l0.2,0.2c0.1,0.1,0.2,0.2,0.2,0.2
			c0.1,0,0.1,0.1,0.2,0.1c0.6,0.5,1.8,1.3,3.2,2c1.4,0.8,3,1.5,4.8,2.3c3.5,1.5,7.3,2.9,11.2,4.2c3.9,1.3,8,2.5,12.1,3.7
			c16.5,4.5,33.8,8,51.1,11c17.4,2.9,34.9,5.3,52.4,7.1c17.5,1.8,35.1,3,52.3,3l54,0h108.1l-1.2,0l9.3-0.7l9.4-0.8
			c6.3-0.6,12.5-1.2,18.8-1.8c12.5-1.3,25.1-2.7,37.6-4.3c25-3.2,49.9-6.8,74.5-11.4c24.6-4.6,49-9.9,72.6-16.9
			c11.7-3.5,23.2-7.5,34-12.1c5.4-2.3,10.6-4.9,15.4-7.6c1.2-0.7,2.3-1.4,3.5-2.1l3.9-2.5c2.6-1.7,5.2-3.4,7.8-5.1
			c5.1-3.4,10.2-6.8,15.1-10.4c2.5-1.8,4.9-3.6,7.3-5.4c2.3-1.9,4.8-3.7,7-5.6c4.7-3.8,9.1-7.7,13.4-11.8c2.1-2.1,4.3-4.1,6.4-6.2
			l3.1-3.2l3-3.3c8.1-8.7,15.6-18.1,22.7-28c7.1-9.8,13.8-20.1,20.2-30.6c6.4-10.5,12.5-21.4,18.4-32.3c3-5.5,5.9-11,8.8-16.6
			c2.8-5.6,5.7-11.1,8.5-16.8l4.2-8.4l4.1-8.5c2.8-5.6,5.4-11.4,8.1-17.1l8-17.2l7.8-17.2c20.8-46.1,40.3-92.5,57.8-139.9
			c4.4-11.8,8.7-23.7,12.8-35.6c2.1-6,4.2-11.9,6.1-17.9c2-6,4-11.9,5.9-17.9c7.8-24,15.1-48.1,21.8-72.4
			c6.8-24.3,13-48.7,18.6-73.3c5.7-24.6,10.8-49.3,15.4-74.1c4.5-24.8,8.5-49.8,11.9-74.9c1.6-12.5,3.3-25.1,4.6-37.7
			c1.5-12.6,2.6-25.2,3.8-37.8l0-0.2c0.4-4.5,4.4-7.8,9-7.4c4.3,0.4,7.6,4.2,7.4,8.5c-0.4,12.8-0.7,25.6-1.5,38.4
			c-0.6,12.8-1.6,25.6-2.4,38.4c-2.1,25.6-4.8,51.1-8.3,76.5c-6.9,50.9-16.5,101.4-28.7,151.4c-6.1,25-12.8,49.8-20.1,74.4
			c-1.8,6.2-3.7,12.3-5.6,18.5c-1.9,6.2-3.8,12.3-5.8,18.4c-3.9,12.2-8,24.4-12.2,36.6c-16.9,48.6-36.2,96.3-57.2,143.1l-7.9,17.5
			l-8.1,17.5c-5.5,11.6-11,23.2-16.9,34.7c-2.9,5.8-5.9,11.5-8.8,17.3c-3,5.7-6,11.5-9.2,17.1c-6.2,11.4-12.7,22.7-19.6,33.8
			c-6.9,11.1-14.2,22.1-22.1,32.9c-7.9,10.7-16.4,21.1-25.7,31l-3.5,3.7l-3.6,3.6c-2.4,2.4-4.9,4.7-7.3,7c-5,4.6-10.1,9-15.4,13.2
			c-10.5,8.5-21.5,16.1-32.5,23.2c-2.8,1.8-5.5,3.6-8.3,5.3l-4.1,2.6c-1.6,0.9-3.1,1.9-4.7,2.8c-6.3,3.5-12.6,6.5-18.9,9.2
			c-12.6,5.3-25.2,9.6-37.9,13.4c-25.3,7.4-50.7,12.9-76.2,17.6c-25.4,4.7-50.9,8.4-76.4,11.7c-12.8,1.6-25.5,3.1-38.3,4.4
			c-6.4,0.7-12.8,1.3-19.2,1.9l-9.6,0.8l-9.7,0.8l-0.5,0h-0.7h-108.1l-54.1,0c-18.9-0.1-37.3-1.4-55.6-3.2
			c-18.3-1.9-36.5-4.3-54.7-7.4c-18.2-3.1-36.3-6.8-54.5-11.8c-4.6-1.3-9.1-2.6-13.8-4.2c-4.6-1.5-9.3-3.2-14.1-5.3
			c-2.4-1.1-4.9-2.2-7.4-3.6c-2.6-1.4-5.2-3-8.2-5.3l-1.1-0.9c-0.2-0.2-0.3-0.3-0.4-0.4l-0.4-0.4l-1.6-1.4c-1-1-2-1.9-3-2.9
			c-1.9-2-3.8-4-5.4-6c-6.8-8.2-12-16.9-16.6-25c-4.6-8.2-8.7-15.9-13-22.9c-2.2-3.5-4.4-6.7-6.7-9.7c-1.1-1.5-2.3-2.9-3.5-4.3
			l-4.5-5.2c-6.2-7-12.1-14.3-17.9-21.7c-11.5-14.9-21.9-30.6-31.3-47l-3.4-6.2l-1.7-3.1l-1.6-3.2l-3.2-6.4l-3-6.4l-1.5-3.2
			l-1.4-3.3c-0.9-2.2-1.9-4.4-2.8-6.6c-1.7-4.4-3.5-8.8-5.1-13.3c-3.2-8.9-6-18-8.4-27.2c-2.5-9.2-4.4-18.5-6-27.9l-1.1-7l-0.9-7.1
			c-0.3-2.4-0.6-4.7-0.8-7.1c-0.2-2.4-0.5-4.7-0.7-7.1c-0.8-9.4-1.1-18.9-1.2-28.4c0-9.4,0.4-18.9,1-28.3c0.7-9.4,1.7-18.7,2.9-28
			c5.1-37.1,14.7-73.1,26.5-108c11.9-34.9,25.9-68.7,41-101.9c15.1-33.2,31.1-65.7,47.3-98c8.1-16.2,16.2-32.1,24.1-48.2
			c7.9-16.1,15.7-32.2,23.5-48.4c15.5-32.4,30.5-65,45.3-97.7c29.5-65.5,57.9-131.5,85.2-198c13.7-33.2,27.2-66.5,40.4-100
			c6.6-16.7,13.2-33.4,19.7-50.2c6.5-16.7,12.9-33.6,19.2-50.2l4.1-10.9l11.3-1.4c15.9-1.9,31.6-3.7,47.5-5.5
			c15.8-1.7,31.6-3.4,47.4-5c31.6-3.2,63.3-6.2,94.9-8.9c31.7-2.7,63.4-5.1,95.1-7.2c31.7-2.1,63.5-3.8,95.4-5
			c31.8-1.3,63.7-2,95.7-1.6c32,0.4,64,1.7,96.1,5.1c16,1.8,32.1,4,48.2,7.5c8,1.8,16,3.8,24,6.4c8,2.6,16,5.8,23.8,10.4
			c3.9,2.3,7.7,5.1,11.3,8.8c1.8,1.8,3.4,3.9,4.8,6.3c0.7,1.2,1.3,2.4,1.8,3.8c0.3,0.7,0.4,1.1,0.6,1.6l0.5,1.4
			c2.6,7.6,5.1,15.2,7.5,22.8c4.7,15.3,9,30.7,12.5,46.3c0.3,1.4-0.6,2.8-2,3.1C2411.3,2131.8,2410.1,2131.2,2409.6,2130.1z" />
        </g>
    </g>
    <g>
        <path class="st2"
            d="M2753.3,2011.2c-0.2,0.3-0.4,0.6-0.5,0.9l0.7-1.2C2753.4,2011.1,2753.4,2011.1,2753.3,2011.2z" />
    </g>
    <g>
        <path class="st2" d="M2752.8,2012.2l-20.3,32.6C2739.5,2034.2,2746.3,2023.4,2752.8,2012.2z" />
    </g>
    <g>
        <path class="st2" d="M2753.4,2000.7c-0.1,0.1-0.2,0.3-0.3,0.4c-0.2,0.2-0.3,0.5-0.5,0.7L2753.4,2000.7z" />
    </g>
    <g>
        <path class="st2" d="M2732.8,2025.9c6.8-7.8,13.4-15.8,19.7-24.2L2732.8,2025.9z" />
    </g>
    <g>
        <path class="st2" d="M1380.1,2025.9l-19.7-24C1366.7,2010.2,1373.2,2018.2,1380.1,2025.9z" />
    </g>
    <g>
        <path class="st2" d="M2768,1991.6c-0.3,0.3-0.6,0.7-0.8,1l1-1.1C2768.2,1991.5,2768.1,1991.5,2768,1991.6z" />
    </g>
    <g>
        <path class="st2"
            d="M2767.2,1992.6l-20.2,22.6c0.1,0,0.1-0.1,0.2-0.2C2754.1,2007.8,2760.8,2000.3,2767.2,1992.6z" />
    </g>
    <g>
        <path class="st0" d="M2098.5,2704.1c-45.9,231.8-44.3,531.3-42.6,536.2c0.6,1.7,74.6,31,34.3,72.9c-56.2,58.4-238,36-256,9.6
		c-26.3-38.7-100.3-493.7-77.1-704.4" />
    </g>
    <g>
        <g>
            <path class="st3" d="M2104,2705.2c1.5,4.6,2.3,9,2.9,13.4c0.6,4.4,0.9,8.7,1.1,13c0.1,4.3,0.1,8.5-0.1,12.7
			c-0.2,4.2-0.6,8.4-1,12.5c-0.8,8.3-1.9,16.6-3.2,24.9c-1.3,8.3-2.8,16.5-4.3,24.7l-1.1,6.2l-1,6.2c-0.7,4.1-1.3,8.3-1.8,12.4
			c-1.1,8.3-2.1,16.6-3,24.9c-1.9,16.6-3.7,33.3-5.3,50c-6.4,66.7-10.6,133.8-13,200.8c-1.2,33.5-1.9,67.1-2,100.5
			c0,8.3,0,16.7,0.2,24.8l0.1,3c0,0.9,0.1,1.9,0.1,2.6c0,0.1,0,0.3,0,0.1c0,0.1-0.1-0.5-0.1-0.7c2.2,1.5-5.8-11.6-6.2-10.1
			c-0.8-0.6-1.1-0.7-1.1-0.8c-0.1-0.1-0.1-0.1-0.1-0.1l0.3,0.2l2.6,1.4c3.9,2,8,4.3,12,6.7c8,4.9,16,10.6,23.4,18.3
			c3.7,3.9,7.2,8.4,10.1,13.8c2.9,5.4,5.1,12,5.5,19c0.2,3.5,0,7-0.6,10.4c-0.6,3.4-1.6,6.6-2.8,9.5c-2.4,5.9-5.7,10.8-9.2,15
			c-6.9,8.3-15,14.8-23.5,19.9c-8.4,5.2-17.2,9.1-26,12.2c-8.8,3.2-17.6,5.6-26.5,7.5c-17.7,3.8-35.4,5.7-53,6.5
			c-17.6,0.8-35.2,0.4-52.6-1c-17.5-1.4-34.9-3.8-52.4-7.8c-8.8-2-17.5-4.4-26.6-7.9c-2.3-0.9-4.6-1.9-6.9-3c-2.4-1.1-4.8-2.4-7.3-4
			c-1.3-0.8-2.6-1.7-3.9-2.7c-1.3-1-2.7-2.2-4.2-3.7l-1.1-1.2c-0.4-0.4-0.8-0.9-1.1-1.3c-0.4-0.5-0.8-1-1.1-1.5
			c-0.3-0.5-0.5-0.8-0.8-1.2l-0.4-0.6l-0.3-0.6l-0.6-1.1c-0.4-0.7-0.7-1.4-1.1-2c-1.3-2.6-2.2-4.9-3.1-7.2c-0.9-2.3-1.7-4.5-2.4-6.7
			c-1.5-4.4-2.8-8.6-4-12.8c-2.4-8.5-4.5-16.8-6.5-25.2c-4-16.7-7.5-33.4-10.8-50.1c-6.6-33.4-12.3-66.8-17.5-100.3
			c-5.2-33.5-9.9-67-14.2-100.7c-4.3-33.6-8-67.3-11.3-101l-2.6-25.3l-2.5-25.3c-1.6-16.9-3.1-33.8-4.2-50.8
			c-2.2-33.9-3-68-1.6-102.1c0.7-17.1,2.2-34.1,4.5-51.1c1.2-8.5,2.6-17,4.3-25.4c1.7-8.4,3.7-16.8,6.3-25.1c0.9-3,4.2-4.7,7.2-3.8
			c2.3,0.7,3.9,2.7,4,5l0,0c0.7,8.5,1.3,16.9,1.8,25.2l1.6,25.1c1,16.7,2,33.3,2.9,50l5.4,100.1c1.7,33.4,3.7,66.9,6.8,100.3
			c3.1,33.4,7,66.7,11.1,100c4.2,33.3,8.9,66.5,14.1,99.7c5.2,33.1,10.8,66.2,17.3,99c3.2,16.4,6.7,32.7,10.5,48.8
			c1.9,8,3.9,16,6.2,23.8c1.1,3.9,2.3,7.7,3.5,11.3c0.6,1.8,1.2,3.6,1.9,5.2c0.6,1.7,1.3,3.2,1.9,4.4l0.4,0.8l0.2,0.3l0.1,0.1l0,0.1
			c0,0,0.1,0.1,0,0.1c-0.1-0.1-0.1-0.2-0.2-0.3c0,0-0.1-0.1-0.1-0.1c0,0,0,0,0,0c0.1,0.1,0.8,0.7,1.8,1.4c1,0.7,2.4,1.4,3.8,2.1
			c1.5,0.7,3,1.4,4.7,2c6.6,2.6,14.2,4.7,21.8,6.5c15.4,3.5,31.5,5.7,47.6,7c16.1,1.3,32.4,1.7,48.4,1c16.1-0.7,32-2.5,47.3-5.8
			c7.6-1.7,15.1-3.7,22.2-6.2c7.1-2.6,13.8-5.6,19.7-9.3c5.9-3.6,11.2-7.9,15-12.6c1.9-2.3,3.3-4.5,4-6.4c0.8-1.9,1-3.4,0.9-4.8
			c-0.1-1.4-0.5-3.1-1.6-5.1c-1.1-2-2.7-4.2-4.8-6.5c-4.2-4.5-10-8.8-16.4-12.7c-3.2-1.9-6.5-3.8-10.1-5.6l-3-1.6l-1.1-0.6l-0.8-0.5
			c-0.3-0.2-0.8-0.5-1.8-1.2c-0.6,1.3-8.8-12-6.6-10.7c-0.1-0.5-0.2-1.4-0.2-1.5c-0.1-0.7-0.1-1-0.1-1.5c-0.1-1.5-0.1-2.6-0.2-3.8
			l-0.1-3.4c-0.2-8.7-0.2-17.2-0.2-25.7c0.1-34,0.8-67.9,2-101.7c2.4-67.7,6.6-135.4,13.1-202.9c1.6-16.9,3.4-33.8,5.3-50.6l3-25.3
			c0.5-4.2,1-8.4,1.4-12.7c0.5-4.2,0.9-8.5,1.3-12.7c0.9-8.5,1.7-16.9,3-25.4c1.2-8.4,2.8-16.8,4.7-25.1c1-4.2,2-8.3,3.2-12.4
			c1.2-4.1,2.6-8.2,4.3-12.2c1.7-4,3.5-8,5.7-11.9c2.2-3.9,4.6-7.8,7.7-11.5c2.3-2.7,6.4-3.1,9.1-0.8
			C2103,2703,2103.6,2704,2104,2705.2L2104,2705.2z" />
        </g>
    </g>
    <g>
        <path class="st2" d="M1957.1,3246c7.7-3.7,15.6-6.8,23.8-9.6c8.2-2.7,16.5-5.1,25.1-6.9l6.5-1.3l6.6-1c2.2-0.4,4.4-0.6,6.7-0.8
		c2.2-0.2,4.5-0.5,6.7-0.6l6.8-0.3c2.3-0.1,4.6,0,6.9,0l3.5,0.1c1.2,0,2.3,0.2,3.5,0.3l7.1,0.6c8.4,0.8,14.5,8.2,13.8,16.5
		c-0.8,8.4-8.2,14.5-16.5,13.8c-1.5-0.1-3-0.5-4.3-1l-0.6-0.3l-5.2-2.1c-0.9-0.3-1.7-0.7-2.6-1.1l-2.7-0.9c-1.8-0.6-3.7-1.2-5.5-1.7
		l-5.7-1.5c-7.7-1.7-15.7-3.1-23.8-3.7c-8.2-0.7-16.5-0.9-24.8-0.7C1973.9,3244.1,1965.4,3244.7,1957.1,3246z" />
    </g>
    <g>
        <path class="st0" d="M2732.5,2034.3c6.8-7.9,13.5-16,19.9-24.3L2732.5,2034.3z" />
    </g>
    <g>
        <path class="st0" d="M1381.4,2034.3l-19.8-24.3C1367.9,2018.4,1374.6,2026.4,1381.4,2034.3z" />
    </g>
    <g class="st1">
        <path class="st2" d="M2479.5,2263.2c-11.8,4.8-23.6,9.4-35.4,13.7c-17.1,6.3-34.2,12.2-51.4,17.7c-251.3,79.8-513.5,69-762.4-33
		c48.8-117.9,79.6-201.4,79.6-201.4s642.4-80.8,676.4,0c9.7,23.2,18.3,46.3,25.7,69.1l5.6,25.6l5.8-32.5
		C2423.4,2122.4,2442,2196,2479.5,2263.2z" />
    </g>
    <g>
        <path class="st0" d="M1195.6,1868.4c3.8,33.3,71.7,1.7,86.5-5.5c1.2-0.6,2.5,0.6,2.1,2.1c-1.4,5.7-5,18.6-14.3,39.3
		c-11.5,25.5-20.8,45.2-15.6,58.6c5.6,14.2,28.6,19.7,57.4,16.4c16.1-1.8,33.3,12.2,48.7,29.2l0,0l0.1,0.1l1,1.3
		c-0.3-0.4-0.6-0.7-0.8-1.1c7.5,8.3,14.6,17.4,20.8,25.6c25.8,29.5,55,55.7,86.7,78.8c41,28.8,86.2,51.5,133.8,69.3v-0.3
		c0,0,65.4,24.1,162.1,46.3c0,0,86.4,18.5,165.4,28.7c0,0,60.4,7.2,126.9,7.2c66.4,0,127.9-7.2,127.9-7.2
		c78.9-10.2,165.4-28.7,165.4-28.7c96.6-22.1,162.1-46.3,162.1-46.3v0.3c47.7-17.8,92.9-40.5,133.8-69.3
		c31.7-23.1,60.9-49.3,86.7-78.8c6.3-8.3,13.4-17.4,21-25.8c-0.3,0.4-0.6,0.8-0.9,1.3l1.1-1.4c0,0-0.1,0.1-0.2,0.1
		c15.4-17,32.7-31.2,48.8-29.4c28.8,3.2,51.8-2.3,57.4-16.4c5.2-13.4-4.2-33.1-15.6-58.6c-9.3-20.6-13-33.6-14.3-39.3
		c-0.3-1.4,0.9-2.7,2.1-2.1c14.8,7.3,82.7,38.8,86.5,5.5c2.2-18.4-27.7-74.2-38.1-131.3c-30.2-165.5-39-198.1-39-198.1
		c-0.2-1.1-29.5-119.7-73.2-207c43.7-116.5,72.3-456.2-0.8-527.1c-58.7-57-279.5,62.6-362.3,146.2
		c-125.3-52.3-319.6-60.2-347.9-60.1c-9.8,0-39.2,0.9-78.6,4.2c-75.3,6.4-187.2,21.6-269.3,55.9c-82.8-83.6-303.6-203.2-362.3-146.2
		c-73.1,70.9-44.5,410.6-0.8,527.1c-27.7,55.2-49.5,122.8-61.9,165.5c-7.2,24.8-11.3,41.2-11.3,41.6c0,0-8.7,32.7-38.9,198.1
		C1223.3,1794.2,1193.4,1849.9,1195.6,1868.4z" />
    </g>
    <g>
        <path class="st0" d="M1329.9,1276.6c-19.1-82.6-31.6-204.6-27.1-305.6c4.2,105.4,21.9,214.4,43.1,271
		C1340.3,1253.1,1335,1264.8,1329.9,1276.6z" />
    </g>
    <g class="st1">
        <path class="st2"
            d="M2844,1904.2c11.4,25.5,20.8,45.2,15.6,58.6c-5.6,14.2-28.6,19.7-57.4,16.4c-16.1-1.8-33.4,12.3-48.8,29.4
		c0,0,0.1-0.1,0.2-0.1l-1.1,1.4c0.3-0.4,0.6-0.8,0.9-1.3c-7.6,8.4-14.7,17.5-21,25.8c-25.8,29.5-55,55.7-86.7,78.8
		c-41,28.8-86.2,51.5-133.8,69.3v-0.3c0,0-65.4,24.1-162.1,46.3c0,0-86.4,18.5-165.4,28.7c0,0-61.5,7.2-127.9,7.2
		c-66.4,0-126.9-7.2-126.9-7.2c-79-10.2-165.4-28.7-165.4-28.7c-96.7-22.1-162.1-46.3-162.1-46.3v0.3
		c-47.7-17.8-92.9-40.5-133.8-69.3c-31.8-23.1-60.9-49.3-86.7-78.8c-6.2-8.2-13.3-17.2-20.8-25.6c0.3,0.4,0.6,0.7,0.8,1.1l-1-1.3
		l-0.1-0.1l0,0c-15.4-17-32.6-31.1-48.7-29.2c-28.8,3.2-51.8-2.3-57.4-16.4c-5.2-13.4,4.2-33.1,15.6-58.6c2.7-6,4.9-11.3,6.7-16
		c9.7,2.2,21.7,2.6,35,1.1c16.1-1.8,33.3,12.2,48.7,29.2l0,0l0.1,0.1l1,1.3c-0.3-0.4-0.6-0.7-0.8-1.1c7.5,8.3,14.6,17.4,20.8,25.6
		c25.8,29.5,55,55.7,86.7,78.8c41,28.8,86.2,51.5,133.8,69.3v-0.3c0,0,65.4,24.1,162.1,46.3c0,0,86.4,18.5,165.4,28.7
		c0,0,60.4,7.2,126.9,7.2c66.4,0,127.9-7.2,127.9-7.2c78.9-10.2,165.4-28.7,165.4-28.7c96.6-22.1,162.1-46.3,162.1-46.3v0.3
		c47.7-17.8,92.9-40.5,133.8-69.3c31.7-23.1,60.9-49.3,86.7-78.8c6.3-8.3,13.4-17.4,21-25.8c-0.3,0.4-0.6,0.8-0.9,1.3l1.1-1.4
		c0,0-0.1,0.1-0.2,0.1c15.4-17,32.7-31.2,48.8-29.4c13.3,1.5,25.4,1.1,35-1.1C2839.1,1892.9,2841.3,1898.3,2844,1904.2z" />
    </g>
    <g>
        <g>
            <path class="st5" d="M1284,1497.4c25,3.1,50.5,4.7,76.3,4.7c337.6,0,612-270.7,618-606.9c-75.3,6.4-187.2,21.6-269.3,55.9
			c-82.8-83.6-303.6-203.2-362.3-146.2c-73.1,70.9-44.5,410.6-0.8,527.1C1318.2,1387.1,1296.4,1454.8,1284,1497.4z" />
        </g>
    </g>
    <g>
        <path class="st2" d="M2752.2,2010.1l-19.8,24.2C2739.3,2026.5,2745.9,2018.4,2752.2,2010.1z" />
    </g>
    <g>
        <path class="st2" d="M1381.4,2034.3l-19.8-24.2C1368,2018.4,1374.6,2026.5,1381.4,2034.3z" />
    </g>
    <g>
        <path class="st7" d="M2603.8,1101c57.9,58.8,94.3,141,99.5,131.4c0.5-0.9,1-2,1.5-3.3c11.1-26.9,29.4-133.5,29.4-228.5
		c0-15.3-0.5-28.9-1.3-40.8c-2.2-32.2-7-52.8-12.9-66c-7.3-16.1-23.9-21.1-38.5-15.7c-38.9,14.4-149.4,83.2-185.4,127.4
		C2489.7,1013.3,2545.8,1042.2,2603.8,1101z" />
    </g>
    <g class="st1">
        <path class="st2" d="M2603.8,1101c57.9,58.8,94.3,141,99.5,131.4c0.5-0.9,1-2,1.5-3.3c-12.9-49.9-48.4-118.8-75.7-168.6
		c-37.2-68,14.1-122.1,58.7-138.2c15.3-5.6,33.4,18.3,45.1,37.5c-2.2-32.2-7-52.8-12.9-66c-7.3-16.1-23.9-21.1-38.5-15.7
		c-38.9,14.4-149.4,83.2-185.4,127.4C2489.7,1013.3,2545.8,1042.2,2603.8,1101z" />
    </g>
    <g>
        <g>
            <path class="st3" d="M2702.2,1248.1c-9.9,0-15.9-8.6-20-14.3c-3.8-5.4-8.6-13-14.2-21.9c-17-27-42.6-67.7-74.9-100.5
			c-29.3-29.8-57.8-51.4-78.7-67.2c-22.9-17.4-32.4-24.6-33.7-35.3c-0.6-4.7,0.8-9.3,3.8-13c38.2-46.8,152.1-117.2,191.8-131.9
			c23.1-8.6,47.3,1.3,57.3,23.5c10.4,23.2,15.5,60.1,15.6,113c0.1,98.3-19.7,214.9-32.7,238.9c-2.8,5.2-8,8.4-13.8,8.6
			C2702.6,1248.1,2702.4,1248.1,2702.2,1248.1z M2515,1006.8c4.7,3.9,11.4,8.9,17.5,13.6c20.3,15.4,51.1,38.7,81.9,70
			c34.6,35.1,61.3,77.5,79,105.6c1.3,2,2.6,4.1,3.9,6.1c9.5-40,22-121.9,21.9-201.5l0,0c0-47.9-4.4-81.7-12.9-100.7
			c-4.3-9.5-13.2-10.1-19.6-7.8C2652.8,904.8,2555.7,964.3,2515,1006.8z" />
        </g>
    </g>
    <g>
        <path class="st7" d="M1514.6,1101c-57.9,58.8-94.3,141-99.5,131.4c-0.5-0.9-1-2-1.5-3.3c-11.1-26.9-29.4-133.5-29.4-228.5
		c0-15.3,0.5-28.9,1.3-40.8c2.2-32.2,7-52.8,12.9-66c7.3-16.1,23.9-21.1,38.5-15.7c38.9,14.4,149.4,83.2,185.4,127.4
		C1628.7,1013.3,1572.6,1042.2,1514.6,1101z" />
    </g>
    <g class="st1">
        <path class="st2" d="M1514.6,1101c-57.9,58.8-94.3,141-99.5,131.4c-0.5-0.9-1-2-1.5-3.3c12.9-49.9,48.4-118.8,75.7-168.6
		c37.2-68-14.1-122.1-58.7-138.2c-15.3-5.6-33.4,18.3-45.1,37.5c2.2-32.2,7-52.8,12.9-66c7.3-16.1,23.9-21.1,38.5-15.7
		c38.9,14.4,149.4,83.2,185.4,127.4C1628.7,1013.3,1572.6,1042.2,1514.6,1101z" />
    </g>
    <g>
        <g>
            <path class="st3"
                d="M1416.2,1248.1c-0.2,0-0.4,0-0.6,0c-5.8-0.2-11-3.4-13.8-8.6c-13-24-32.8-140.5-32.7-238.9l15,0l-15,0
			c0-52.9,5.1-89.8,15.5-113c10.1-22.3,34.2-32.2,57.3-23.6c39.7,14.7,153.6,85.1,191.8,131.9c3,3.7,4.3,8.3,3.8,13
			c-1.3,10.7-10.8,17.9-33.7,35.3c-20.8,15.8-49.3,37.4-78.7,67.2c-32.3,32.8-58,73.5-74.9,100.5c-5.6,8.8-10.4,16.4-14.2,21.9
			C1432.1,1239.6,1426.1,1248.1,1416.2,1248.1z M1428.3,1225.2L1428.3,1225.2L1428.3,1225.2z M1425.4,891c-5.1,0-10.3,2.3-13.3,9
			c-8.5,18.9-12.8,52.8-12.9,100.6l0,0c-0.1,79.6,12.4,161.5,21.9,201.5c1.3-2,2.6-4.1,3.9-6.1c17.7-28.1,44.4-70.5,79-105.6
			c30.8-31.3,61.6-54.6,81.9-70c6.2-4.7,12.8-9.7,17.5-13.6c-40.6-42.5-137.8-102-171.7-114.6C1429.7,891.5,1427.6,891,1425.4,891z" />
        </g>
    </g>
    <g>
        <g>
            <path class="st3" d="M2183.2,2248.8c27.4-5.6,54.7-11.3,82-17.2l40.9-9l20.4-4.6l10.2-2.3l5.1-1.2l2.5-0.6l2.4-0.6l20.1-5.2
			c6.7-1.8,13.4-3.5,20.1-5.4c13.4-3.6,26.8-7.4,40.1-11.3c13.3-3.9,26.6-7.9,39.8-12.1c6.6-2.1,13.2-4.2,19.7-6.4l9.8-3.3l4.9-1.7
			l4.7-1.7l22.9-8.2l0,24.2l0,0.3l-23-16c20.5-7.7,40.5-16.3,60-26c19.5-9.7,38.4-20.5,56.5-32.4c2.2-1.5,4.5-3,6.7-4.5l6.6-4.5
			l6.4-4.8c2.2-1.7,4.3-3.3,6.5-4.9c8.6-6.7,16.9-13.6,25.1-20.7c8.1-7.2,16-14.6,23.7-22.2c1.9-1.9,3.8-3.8,5.7-5.8
			c1.9-1.9,3.7-3.9,5.6-5.9c1.9-2,3.7-4,5.5-6c0.9-1,1.8-2,2.7-3l1.3-1.5l0.7-0.8l0.3-0.4l0.2-0.2c-0.1,0-1.5,2-1.3,1.7
			c-0.1,0.1,0.1-0.2,0.5-0.7c0.4-0.5,0.9-1.2,1.8-2.1c0.9-0.9,2.1-1.9,3.6-2.7l-4.5,3.7c7-8,13.7-16.2,20.1-24.7l0.4-0.6l0.4-0.4
			c1.1-1.2,1.7-1.7,2.1-2l0.6-0.4l-0.5,0.4c-0.4,0.3-0.9,0.7-2,1.9l26.7,22.6l-21.2,26l-27.5-21.7c9-11.8,18.4-23.8,29.8-35.2
			c5.7-5.7,11.9-11.2,19.4-16.3c3.8-2.5,7.9-4.9,12.6-6.8c4.7-2,10.1-3.5,16-4c1.5-0.1,3-0.1,4.5-0.1c0.8,0,1.5,0.1,2.3,0.1l1.8,0.2
			c1.6,0.2,3.2,0.3,4.8,0.4c3.2,0.2,6.3,0.3,9.4,0.3c3.1,0,6.1-0.2,8.9-0.6c2.8-0.4,5.5-0.9,7.9-1.6c2.3-0.7,4.3-1.6,5.6-2.4
			c1.3-0.8,1.7-1.4,1.7-1.5c0,0.1,0.3-0.5,0.3-2c0-1.5-0.3-3.8-0.9-6.5c-0.6-2.6-1.6-5.5-2.7-8.5c-1.1-3-2.4-6.1-3.7-9.3
			c-2.7-6.4-5.7-12.9-8.7-19.7c-3.1-7-6.1-14.1-8.8-21.4c-1.3-3.7-2.6-7.4-3.8-11.3c-0.6-1.9-1.2-3.9-1.7-6l-0.4-1.6l-0.2-0.8
			l-0.1-0.4c0,0.2-0.2-0.8-0.2-1.2c-0.1-0.5-0.2-1-0.2-1.6c-0.4-4.4,0.7-9.3,3.7-13.4c1.5-2.1,3.5-4,6.1-5.5
			c2.6-1.5,5.8-2.5,9.1-2.6c3.3-0.1,6.5,0.7,9,2l0.6,0.3l1.1,0.6l2.3,1.1c1.6,0.7,3.1,1.4,4.7,2.1c3.1,1.4,6.3,2.8,9.5,4
			c6.3,2.6,12.7,4.9,19,6.7c6.2,1.8,12.5,3.2,17.7,3.6c2.6,0.2,4.9,0.1,6.3-0.1c0.7-0.1,1.1-0.3,1.1-0.3c0,0-0.3,0.1-0.7,0.5
			c-0.4,0.4-0.8,1-0.9,1.2c-0.1,0.3,0,0.2,0-0.2c0,0.3,0-0.2-0.1-1.2c-0.1-1-0.3-2.2-0.6-3.6c-0.6-2.7-1.5-5.9-2.5-9
			c-1-3.2-2.1-6.5-3.3-9.8c-4.7-13.3-10-27.2-14.8-41.2c-4.9-14.1-9.4-28.6-13.1-43.5c-0.9-3.7-1.8-7.5-2.6-11.3
			c-0.4-1.9-0.8-3.8-1.1-5.7l-1-5.4l-4-21.5c-5.3-28.6-10.7-57.3-16.3-85.8c-2.8-14.3-5.6-28.5-8.6-42.7c-1.5-7.1-2.9-14.2-4.5-21.2
			l-2.3-10.5l-1.2-5.2l-0.6-2.5l-0.5-2.2l-0.3-1.3l-3.1-12c-1.2-4.4-2.4-8.7-3.6-13.1c-2.4-8.7-5-17.4-7.6-26
			c-5.2-17.3-10.8-34.5-16.7-51.6c-5.9-17.1-12.2-33.9-18.9-50.6c-3.4-8.3-6.9-16.5-10.5-24.7c-3.7-8.1-7.5-16.2-11.4-24.1l-3.7-7.3
			l2.9-7.7c3.2-8.6,6-17.6,8.6-26.8c2.6-9.2,4.9-18.5,7-27.9c4.3-18.8,7.8-37.9,10.9-57.2c6.2-38.5,10.4-77.4,13.1-116.3
			c2.6-39,3.6-78,2.3-116.8c-0.7-19.4-2-38.7-4.3-57.7c-2.3-19-5.5-37.8-10.4-55.5c-2.5-8.8-5.4-17.4-8.9-25.3
			c-3.5-7.8-7.7-15.1-12.4-20.5c-0.6-0.7-1.2-1.3-1.8-1.9l-0.9-0.9l-0.7-0.7c-1-0.9-2.1-1.7-3.4-2.5c-2.5-1.5-5.4-2.8-8.8-3.8
			c-6.7-1.9-14.9-2.6-23.4-2.3c-8.5,0.3-17.4,1.5-26.4,3.3c-8.9,1.8-18,4.1-26.9,6.8c-18,5.4-35.8,12.3-53.4,20.1
			c-17.6,7.7-34.9,16.3-51.8,25.6c-17,9.2-33.6,19.1-49.9,29.5c-16.3,10.4-32.1,21.5-47.4,33.1c-15.2,11.7-29.9,24-42.9,37.1
			l-9.3,9.3l-12.2-5c-13-5.4-26.4-10.2-40-14.5c-3.4-1-6.8-2.2-10.3-3.2l-10.3-3c-6.9-1.9-13.9-3.8-20.9-5.4
			c-28-6.9-56.6-12.3-85.3-16.9c-28.8-4.4-57.7-7.9-86.8-10.6c-14.5-1.3-29.1-2.4-43.6-3.3c-7.3-0.4-14.5-0.8-21.8-1.1
			c-3.6-0.2-7.2-0.3-10.8-0.4c-3.6-0.1-7.2-0.2-10.5-0.2c-3.3,0-6.9,0.1-10.5,0.2c-3.6,0.1-7.2,0.2-10.8,0.4
			c-7.2,0.3-14.5,0.7-21.8,1.1c-14.5,0.9-29.1,2-43.6,3.3c-29.1,2.7-58,6.2-86.8,10.6c-28.7,4.5-57.3,9.9-85.3,16.9
			c-7,1.7-14,3.6-20.9,5.5l-10.3,3c-3.5,1-6.8,2.1-10.3,3.2c-13.6,4.3-27,9.1-40,14.5l-12.2,5.1l-9.3-9.4
			c-13-13.1-27.7-25.4-42.9-37.1c-15.2-11.6-31.1-22.7-47.4-33.1c-16.3-10.4-32.9-20.3-49.9-29.5c-17-9.2-34.3-17.8-51.8-25.5
			c-17.6-7.7-35.4-14.6-53.4-20c-9-2.7-18-5-26.9-6.8c-8.9-1.8-17.8-2.9-26.3-3.2c-8.5-0.3-16.6,0.4-23.3,2.3
			c-3.3,1-6.3,2.2-8.7,3.7c-1.2,0.8-2.3,1.6-3.3,2.5l-0.7,0.7l-0.9,0.9c-0.6,0.6-1.2,1.2-1.8,1.9c-4.7,5.4-8.8,12.6-12.3,20.4
			c-3.5,7.9-6.4,16.4-8.8,25.3c-4.9,17.7-8.1,36.5-10.4,55.5c-2.3,19-3.6,38.3-4.3,57.6c-1.4,38.7-0.3,77.8,2.3,116.8
			c2.7,39,7,77.9,13.1,116.3c3.1,19.2,6.7,38.3,10.9,57.1c2.1,9.4,4.5,18.7,7,27.9c2.6,9.2,5.4,18.2,8.6,26.7l2.9,7.8l-3.7,7.5
			c-3.9,7.9-7.7,15.9-11.4,24.1c-3.6,8.2-7.1,16.4-10.5,24.7c-6.7,16.6-13,33.5-18.9,50.6c-5.9,17.1-11.5,34.3-16.7,51.6
			c-2.6,8.7-5.1,17.3-7.6,26c-1.2,4.3-2.4,8.7-3.6,13.1l-3.1,12l-0.3,1.3l-0.5,2.2l-0.6,2.5l-1.2,5.2l-2.3,10.5
			c-1.5,7-3,14.1-4.5,21.2c-2.9,14.2-5.8,28.5-8.5,42.7c-5.6,28.5-11,57.2-16.3,85.8l-4,21.5l-1,5.4c-0.4,1.9-0.7,3.8-1.1,5.7
			c-0.8,3.8-1.6,7.6-2.6,11.3c-3.7,15-8.2,29.4-13.1,43.6c-4.8,14.1-10.1,27.9-14.8,41.3c-1.2,3.3-2.3,6.6-3.3,9.8
			c-1,3.2-1.9,6.3-2.5,9c-0.3,1.4-0.5,2.6-0.6,3.5c-0.1,1-0.1,1.5-0.1,1.1c0,0.4,0.1,0.4,0,0.1c-0.1-0.3-0.5-1-1-1.4
			c-0.5-0.4-0.9-0.6-0.9-0.6c0,0,0.1,0,0.2,0.1c0.1,0,0.2,0,0.3,0.1l0.4,0.1c1.3,0.3,3.6,0.3,6.2,0.1c5.2-0.4,11.4-1.8,17.6-3.6
			c6.2-1.8,12.6-4.1,18.9-6.7c3.2-1.3,6.3-2.6,9.4-4c1.6-0.7,3.1-1.4,4.7-2.1l2.3-1.1l1.1-0.6l0.6-0.3c2.6-1.3,5.8-2.1,9.2-2
			c3.4,0.1,6.7,1.1,9.3,2.6c2.7,1.5,4.7,3.5,6.2,5.6c3.1,4.2,4.2,9.2,3.8,13.8c-0.1,0.6-0.1,1.1-0.2,1.6c-0.1,0.4-0.3,1.4-0.2,1.2
			l-0.1,0.4l-0.2,0.8l-0.4,1.6c-0.5,2.1-1.1,4-1.7,6c-1.2,3.9-2.5,7.6-3.8,11.3c-2.7,7.4-5.6,14.5-8.8,21.4c-3,6.8-6,13.3-8.7,19.7
			c-1.3,3.2-2.6,6.3-3.7,9.3c-1.1,3-2,5.9-2.7,8.5c-0.6,2.6-0.9,4.9-0.9,6.3c0,1.4,0.3,1.9,0.2,1.7c0,0,0.1,0.1,0.3,0.3
			c0.2,0.2,0.6,0.6,1.2,1c1.2,0.8,3.1,1.6,5.4,2.3c2.3,0.7,5,1.2,7.8,1.6c2.8,0.4,5.8,0.6,8.9,0.6c3.1,0,6.2,0,9.4-0.3
			c1.6-0.1,3.2-0.2,4.8-0.4l1.8-0.2c0.8-0.1,1.6-0.1,2.3-0.1c1.6,0,3.1,0,4.6,0.1c6,0.5,11.5,2,16.2,4c4.7,2,8.9,4.4,12.7,6.9
			c7.5,5,13.8,10.6,19.5,16.3c11.4,11.4,20.8,23.5,29.8,35.3l-28.3,22.3l-21.2-26l27.4-23.2c-1.1-1.2-1.7-1.7-2-2l-0.5-0.4l0.6,0.5
			c0.4,0.3,1,0.8,2.1,2.1l0.4,0.4l0.4,0.6c6.3,8.4,13,16.6,20,24.6l-4.6-3.8c1.6,0.9,2.8,1.9,3.7,2.8c0.9,0.9,1.5,1.6,1.9,2.2
			c0.4,0.5,0.6,0.8,0.5,0.7c0.3,0.3-1.3-1.7-1.3-1.7l0.2,0.2l0.3,0.4l0.7,0.8l1.3,1.5c0.9,1,1.8,2,2.7,3c1.8,2,3.6,4,5.5,6
			c1.9,2,3.7,3.9,5.6,5.9c1.9,1.9,3.8,3.9,5.7,5.8c7.6,7.6,15.5,15.1,23.6,22.2c8.1,7.1,16.5,14,25,20.7c2.1,1.7,4.3,3.3,6.5,4.9
			l6.4,4.8l6.6,4.5c2.2,1.5,4.5,3,6.7,4.5c18.1,11.9,37,22.7,56.4,32.3c19.5,9.7,39.5,18.3,60,26l-23.7,16.4l0-0.3l0-24.9l23.6,8.4
			l4.7,1.7l4.8,1.7l9.8,3.3c6.5,2.2,13.1,4.3,19.7,6.4c13.2,4.2,26.5,8.1,39.8,12c13.3,3.8,26.7,7.6,40.1,11.2
			c6.7,1.9,13.4,3.6,20.1,5.4l20,5.2l1.1,0.3l1.3,0.3l2.5,0.6l5.1,1.2l10.2,2.3l20.4,4.6l40.9,9.1c27.3,6,54.6,11.8,81.9,17.7l0,0
			c4.6,1,7.5,5.5,6.5,10.1c-0.9,4.1-4.7,6.9-8.8,6.7c-28.3-1.4-56.4-4.4-84.4-8.1c-14-1.8-27.9-3.9-41.9-6.1
			c-7-1.1-13.9-2.3-20.9-3.5l-10.4-1.8l-5.2-0.9l-2.6-0.5l-1.3-0.2l-1.4-0.3c-7-1.5-14-2.9-20.9-4.5c-6.9-1.6-13.8-3.1-20.7-4.8
			c-13.8-3.3-27.5-6.9-41.1-10.6c-13.7-3.8-27.2-7.8-40.8-12c-6.8-2.1-13.5-4.3-20.3-6.5l-10.1-3.4l-5.1-1.8l-5.2-1.8l23.6-16.5
			l0,0.3l0,25.3l-23.7-8.8c-21.5-8-42.7-17-63.4-27.2c-20.7-10.2-40.8-21.6-60.2-34.3c-2.4-1.6-4.8-3.2-7.2-4.8l-7.3-5l-7.1-5.2
			c-2.3-1.8-4.6-3.5-6.9-5.2c-9.1-7.1-18.1-14.4-26.8-22c-8.7-7.6-17.2-15.5-25.4-23.7c-2.1-2-4.1-4.1-6.1-6.2c-2-2.1-4-4.2-6-6.3
			c-2-2.1-3.9-4.3-5.9-6.4l-2.9-3.2l-1.4-1.6l-0.7-0.8l-0.4-0.4l-0.2-0.2c-0.1,0-1.6-2.1-1.4-1.8c-0.1-0.2,0.1,0.1,0.4,0.6
			c0.4,0.5,0.9,1.2,1.8,2.1c0.9,0.9,2.1,1.9,3.6,2.7l-4.6-3.8c-7.5-8.6-14.8-17.4-21.7-26.6l0.8,1c1.1,1.2,1.7,1.7,2,2l0.5,0.4
			l-0.6-0.5c-0.4-0.3-1-0.8-2.1-2.1l27.4-23.2l21.3,25.9l-28.3,22.3c-4.4-5.7-8.7-11.2-13.1-16.5c-4.4-5.3-8.9-10.4-13.6-15
			c-4.6-4.6-9.4-8.7-14-11.8c-2.3-1.5-4.5-2.7-6.5-3.6c-2-0.8-3.7-1.2-4.9-1.3c-0.3,0-0.6,0-0.9,0c-0.1,0-0.3,0-0.4,0l-0.2,0
			l-0.8,0.1c-2,0.2-4.1,0.4-6.1,0.6c-4.1,0.3-8.3,0.4-12.5,0.4c-4.2-0.1-8.5-0.3-12.9-0.9c-4.4-0.6-8.9-1.4-13.6-2.8
			c-4.7-1.4-9.6-3.3-14.5-6.4c-2.5-1.6-5-3.5-7.3-5.8c-2.4-2.3-4.6-5.1-6.4-8.3c-3.7-6.6-4.9-13.5-5-19.3c0-5.8,0.8-10.8,1.9-15.3
			c1.1-4.5,2.4-8.6,3.8-12.4c1.4-3.9,2.9-7.5,4.4-11c3-7.1,6.1-13.8,9-20.3c2.8-6.3,5.4-12.7,7.7-19.1c1.1-3.2,2.2-6.3,3.2-9.4
			c0.5-1.5,0.9-3.1,1.3-4.6l0.3-1.1l0.1-0.5l0.1-0.3c0.1-0.3-0.1,0.6-0.2,0.9c-0.1,0.4-0.1,0.9-0.2,1.3c-0.3,3.6,0.5,7.7,3.1,11.2
			c1.3,1.8,3,3.4,5.2,4.7c2.2,1.3,5.1,2.2,8,2.3c3,0.1,5.7-0.6,7.9-1.7l-0.6,0.3l-1.3,0.6l-2.6,1.3c-1.8,0.8-3.5,1.6-5.3,2.4
			c-3.5,1.6-7.1,3.1-10.7,4.6c-7.2,2.9-14.6,5.6-22.3,7.9c-7.8,2.3-15.8,4.3-25.2,5.1c-4.7,0.3-9.8,0.4-15.6-0.6
			c-2.9-0.5-6.1-1.4-9.5-2.9c-3.3-1.5-6.9-3.7-9.9-6.6c-3.1-3-5.6-6.7-7.1-10.3c-1.6-3.7-2.4-7.2-2.8-10.5c-0.5-4-0.2-7.1,0.1-9.8
			c0.3-2.7,0.8-5,1.2-7.2c1-4.4,2.1-8.3,3.3-12.1c1.2-3.8,2.4-7.4,3.6-11c5-14.2,10.1-27.6,14.7-41.1c4.6-13.5,8.8-26.9,12-40.3
			c0.8-3.3,1.6-6.7,2.2-10c0.3-1.7,0.7-3.3,1-5l1-5.4l3.9-21.6c5.3-28.7,10.6-57.5,16.2-86.2c2.8-14.4,5.6-28.7,8.5-43.1
			c1.5-7.2,2.9-14.4,4.5-21.6l2.4-10.9l1.2-5.5l0.7-2.8l0.8-3.1l-0.3,1.3l0.3-1.3l0.1-0.5l0.2-0.9l0.4-1.7l0.9-3.4l1.8-6.8
			c1.2-4.5,2.4-9,3.7-13.5c2.5-9,5.1-17.9,7.7-26.8c5.3-17.8,11-35.5,17-53.1c6.1-17.6,12.5-35.1,19.5-52.5
			c3.5-8.7,7.2-17.3,11-25.9c3.8-8.6,7.9-17.2,12.1-25.7l-0.8,15.3c-3.7-10-6.9-19.9-9.7-29.8c-2.8-9.9-5.3-19.8-7.6-29.7
			c-4.5-19.8-8.3-39.7-11.5-59.6c-6.4-39.8-10.9-79.7-13.7-119.8c-2.8-40.1-3.9-80.3-2.5-120.8c0.7-20.2,2.1-40.5,4.5-60.8
			c2.4-20.3,5.8-40.8,11.4-61.3c2.8-10.2,6.2-20.5,10.8-30.7c4.6-10.2,10.2-20.5,18.5-30.2c1-1.2,2.1-2.4,3.3-3.6l1.7-1.7l2-1.8
			c2.7-2.4,5.6-4.5,8.6-6.4c6-3.7,12.3-6.3,18.4-8.1c12.4-3.5,24.2-4.2,35.5-3.9c11.3,0.4,22.1,1.9,32.6,3.9
			c10.5,2,20.7,4.7,30.7,7.7c20,6,39.2,13.4,57.9,21.6c18.7,8.2,36.9,17.3,54.8,27c17.8,9.7,35.3,20,52.4,31
			c17.1,11,33.8,22.5,50,35c16.2,12.5,32,25.6,46.9,40.6l-21.5-4.3c14.3-5.9,28.8-11.1,43.3-15.7c3.6-1.1,7.3-2.3,10.9-3.4l11-3.2
			c7.3-2,14.7-4,22-5.8c29.4-7.3,59-12.9,88.7-17.6c29.7-4.6,59.4-8.2,89.3-10.9c14.9-1.4,29.8-2.5,44.8-3.4
			c7.5-0.5,15-0.9,22.5-1.2c3.8-0.2,7.5-0.3,11.3-0.4c3.8-0.1,7.6-0.2,11.7-0.2c4.1,0,7.8,0.1,11.7,0.2c3.8,0.1,7.6,0.3,11.3,0.4
			c7.5,0.3,15,0.7,22.5,1.2c15,0.9,29.9,2.1,44.8,3.4c29.8,2.7,59.6,6.4,89.3,11c29.7,4.7,59.3,10.3,88.7,17.6
			c7.4,1.8,14.7,3.8,22,5.8l11,3.2c3.7,1,7.3,2.2,10.9,3.4c14.6,4.6,29,9.8,43.3,15.7l-21.5,4.3c14.9-15,30.7-28.1,46.9-40.6
			c16.2-12.4,33-24,50-34.9c17.1-10.9,34.5-21.3,52.4-30.9c17.8-9.7,36.1-18.7,54.8-26.9c18.7-8.2,37.9-15.6,57.9-21.6
			c10-3,20.2-5.6,30.7-7.7c10.5-2,21.3-3.5,32.6-3.9c11.3-0.3,23.1,0.4,35.5,3.9c6.1,1.8,12.4,4.4,18.4,8.1c3,1.8,5.9,4,8.6,6.4
			l2,1.8l1.7,1.7c1.1,1.2,2.2,2.3,3.3,3.5c8.3,9.6,13.9,19.9,18.4,30.1c4.5,10.2,7.9,20.5,10.7,30.7c5.6,20.5,9,40.9,11.4,61.2
			c2.4,20.3,3.7,40.6,4.4,60.8c1.4,40.4,0.2,80.7-2.5,120.8c-2.8,40.1-7.3,80-13.7,119.8c-3.2,19.9-7,39.7-11.5,59.5
			c-2.3,9.9-4.8,19.8-7.6,29.7c-2.8,9.9-5.9,19.8-9.7,29.8l-0.8-15c4.2,8.5,8.2,17,12.1,25.6c3.8,8.6,7.5,17.2,11,25.9
			c7,17.4,13.4,34.9,19.5,52.5c6,17.6,11.7,35.3,17,53.1c2.7,8.9,5.2,17.8,7.7,26.8c1.2,4.5,2.5,9,3.7,13.5l1.8,6.8l0.9,3.4l0.4,1.7
			l0.2,0.9l0.1,0.5l0.3,1.3l-0.3-1.3l0.8,3.1l0.7,2.8l1.2,5.5l2.4,10.9c1.5,7.2,3,14.4,4.5,21.6c2.9,14.4,5.7,28.7,8.5,43.1
			c5.5,28.7,10.9,57.5,16.1,86.2l3.9,21.6l1,5.4c0.3,1.7,0.6,3.3,1,5c0.7,3.3,1.4,6.7,2.2,10c3.2,13.4,7.4,26.8,12,40.3
			c4.6,13.5,9.7,27,14.7,41.1c1.2,3.6,2.5,7.2,3.6,11c1.2,3.8,2.3,7.7,3.3,12.1c0.5,2.2,0.9,4.5,1.2,7.2c0.3,2.6,0.5,5.7,0.1,9.7
			c-0.4,3.2-1.2,6.7-2.8,10.3c-1.5,3.6-4,7.3-7,10.2c-3,2.9-6.5,5.1-9.8,6.5c-3.3,1.5-6.4,2.3-9.4,2.8c-5.8,1-10.8,0.9-15.5,0.6
			c-9.3-0.8-17.3-2.8-25.1-5.1c-7.7-2.3-15.1-5-22.3-7.9c-3.6-1.5-7.1-3-10.7-4.6c-1.8-0.8-3.5-1.6-5.3-2.4l-2.6-1.3l-1.3-0.6
			l-0.6-0.3c2.1,1,4.8,1.7,7.7,1.7c2.9-0.1,5.6-0.9,7.8-2.2c2.2-1.3,3.8-2.8,5.1-4.6c2.5-3.4,3.3-7.3,3-10.8c0-0.4-0.1-0.8-0.2-1.3
			c0-0.3-0.2-1.1-0.2-0.9l0.1,0.3l0.1,0.5l0.3,1.1c0.4,1.5,0.8,3,1.3,4.6c0.9,3.1,2,6.3,3.2,9.5c2.3,6.4,4.9,12.8,7.8,19.1
			c2.9,6.5,6,13.3,9,20.3c1.5,3.5,3,7.2,4.4,11c1.4,3.8,2.7,7.9,3.8,12.4c1.1,4.5,1.9,9.4,1.9,15.2c-0.1,5.8-1.2,12.6-4.9,19
			c-1.8,3.1-4,5.9-6.3,8.2c-2.3,2.3-4.8,4.2-7.3,5.7c-4.9,3.1-9.8,5-14.4,6.4c-4.7,1.4-9.2,2.2-13.5,2.8c-4.4,0.6-8.7,0.8-12.9,0.9
			c-4.2,0.1-8.3-0.1-12.4-0.4c-2-0.1-4.1-0.3-6.1-0.6l-0.8-0.1l-0.2,0c-0.1,0-0.3,0-0.4,0c-0.3,0-0.6,0-0.9,0
			c-1.3,0.1-3.1,0.5-5.1,1.3c-2,0.8-4.3,2.1-6.6,3.6c-4.6,3.1-9.4,7.2-14.1,11.8c-4.6,4.6-9.2,9.7-13.6,15
			c-4.4,5.3-8.8,10.9-13.1,16.6l-27.5-21.7l21.3-25.9l26.7,22.6c-1.1,1.2-1.7,1.7-2.1,2l-0.6,0.4l0.5-0.4c0.4-0.3,0.9-0.7,2-1.9
			l0.8-1c-6.9,9.2-14.2,18-21.7,26.6l-4.5,3.7c1.5-0.9,2.7-1.8,3.5-2.7c0.8-0.8,1.4-1.5,1.7-2c0.3-0.5,0.5-0.7,0.4-0.6
			c0.2-0.3-1.3,1.7-1.4,1.8l-0.2,0.2l-0.4,0.4l-0.7,0.8l-1.4,1.6l-2.9,3.2c-2,2.1-3.9,4.3-5.9,6.4c-2,2.1-4,4.2-6,6.3
			c-2,2.1-4,4.1-6.1,6.2c-8.2,8.2-16.7,16.1-25.4,23.7c-8.7,7.6-17.6,15-26.8,22c-2.3,1.8-4.6,3.5-6.9,5.2l-7.1,5.2l-7.3,5
			c-2.4,1.6-4.8,3.2-7.2,4.8c-19.4,12.6-39.5,24-60.2,34.3c-20.7,10.2-41.8,19.2-63.3,27.2l-23,8.6l0-24.6l0-0.3l23,16l-5.2,1.8
			l-5.1,1.8l-10.1,3.4c-6.8,2.2-13.5,4.4-20.3,6.5c-13.6,4.2-27.2,8.2-40.8,12c-13.7,3.7-27.4,7.3-41.1,10.6
			c-6.9,1.7-13.8,3.2-20.7,4.8c-6.9,1.6-13.9,3-20.9,4.5c-0.4,0.1-1,0.2-1.4,0.3l-1.3,0.2l-2.6,0.5l-5.2,0.9l-10.4,1.8
			c-6.9,1.2-13.9,2.3-20.9,3.5c-7,1.1-13.9,2.2-20.9,3.2c-7,1-14,2-20.9,3c-28,3.8-56,6.9-84.3,8.5c-4.7,0.3-8.7-3.3-9-8
			C2176.1,2253.3,2179.1,2249.6,2183.2,2248.8L2183.2,2248.8z" />
        </g>
    </g>
    <g>
        <ellipse class="st8" cx="1615.3" cy="1911.4" rx="80.1" ry="38.4" />
    </g>
    <g>
        <ellipse class="st8" cx="2498.5" cy="1911.4" rx="80.1" ry="38.4" />
    </g>
    <g>
        <path class="st0" d="M2177,1851.7c0,0-21,55.1-70.2,42.4c-56-14.5-49.3-81.3-49.3-81.3" />
    </g>
    <g>
        <path class="st0" d="M1935.9,1851.7c0,0,21,55.1,70.2,42.4c56-14.5,49.3-81.3,49.3-81.3" />
    </g>
    <g>
        <g>
            <path class="st3" d="M2184.9,1854.7l-0.5,1.8l-0.5,1.6c-0.4,1.1-0.7,2.1-1.1,3.2c-0.8,2.1-1.7,4.1-2.7,6.2c-1.9,4-4.2,8-6.8,11.7
			c-5.2,7.5-11.8,14.5-20.1,20c-8.2,5.5-18.3,8.9-28.5,9.6c-5.1,0.3-10.1,0-15-0.8c-1.2-0.2-2.4-0.5-3.6-0.7
			c-1.2-0.3-2.4-0.5-3.5-0.9l-3.4-1l-1.7-0.5l-1.7-0.6l-3.4-1.3c-1.1-0.4-2.2-1-3.3-1.5c-1.1-0.6-2.2-1-3.3-1.7l-3.2-1.8
			c-4.2-2.6-8.1-5.6-11.7-9c-1.8-1.7-3.4-3.5-5-5.4c-1.5-1.9-3.1-3.8-4.4-5.8c-1.4-2-2.5-4.1-3.7-6.2c-1.1-2.1-2.2-4.2-3-6.4
			c-3.7-8.6-5.7-17.6-6.7-26.5c-0.4-4.4-0.7-8.9-0.5-13.3c0.1-2.2,0.2-4.4,0.4-6.6c0.1-1.1,0.2-2.2,0.4-3.3l0.2-1.7l0.3-1.8
			c0.8-4.6,5.1-7.7,9.7-6.9c3.7,0.6,6.4,3.6,7,7.1l0.2,1.6c0,0.2,0.1,0.8,0.1,1.2l0.1,1.3c0.1,0.9,0.2,1.8,0.2,2.7
			c0.2,1.8,0.4,3.7,0.7,5.5c0.6,3.7,1.2,7.3,2.1,10.8c1.7,7.1,4.1,13.8,7.3,19.8c0.8,1.5,1.7,2.9,2.5,4.4c0.9,1.4,1.8,2.8,2.9,4
			c0.9,1.3,2.1,2.5,3.1,3.7c1.2,1.1,2.2,2.3,3.4,3.3c4.7,4.2,10.3,7.3,16.4,9.5l1.1,0.4l1.2,0.3l2.4,0.7c0.8,0.3,1.6,0.4,2.4,0.5
			c0.8,0.1,1.6,0.4,2.3,0.5l2.3,0.3c0.8,0.2,1.5,0.1,2.3,0.2c1.5,0.2,3,0.1,4.5,0.1c6-0.3,11.7-1.8,17.3-4.8
			c5.5-3,10.8-7.3,15.6-12.4c2.4-2.6,4.7-5.4,6.9-8.3c1.1-1.5,2.2-2.9,3.2-4.5c0.5-0.8,1-1.5,1.5-2.3l0.7-1.1c0.2-0.3,0.5-0.8,0.6-1
			l1.3-1.6c2.9-3.6,8.2-4.1,11.8-1.2C2184.9,1848,2185.8,1851.5,2184.9,1854.7z" />
        </g>
    </g>
    <g>
        <g>
            <path class="st3" d="M1943.8,1848.6c0.1,0.2,0.4,0.6,0.6,1l0.7,1.1c0.5,0.8,1,1.5,1.5,2.3c1,1.5,2.1,3,3.2,4.5
			c2.2,2.9,4.5,5.7,6.9,8.3c4.8,5.2,10.1,9.5,15.6,12.4c5.5,3.1,11.3,4.5,17.3,4.8c1.5,0,3,0,4.5-0.1c0.8-0.1,1.5,0,2.3-0.2l2.3-0.3
			c0.8-0.1,1.6-0.3,2.3-0.5c0.8-0.2,1.6-0.3,2.4-0.5l2.4-0.7l1.2-0.3l1.1-0.4c6.1-2.2,11.7-5.3,16.4-9.5c1.2-1,2.3-2.2,3.4-3.3
			c1-1.2,2.2-2.4,3.1-3.7c1-1.2,1.9-2.6,2.9-4c0.8-1.4,1.7-2.8,2.5-4.4c3.2-6,5.6-12.7,7.3-19.8c0.9-3.5,1.5-7.2,2.1-10.8
			c0.3-1.8,0.5-3.7,0.7-5.5c0.1-0.9,0.2-1.8,0.2-2.7l0.1-1.3c0-0.4,0.1-0.9,0.1-1.2l0.2-1.5c0.7-4.6,5-7.8,9.6-7.1
			c3.7,0.5,6.5,3.4,7.1,7l0.3,1.8l0.2,1.7c0.1,1.1,0.3,2.2,0.4,3.3c0.2,2.2,0.3,4.4,0.4,6.6c0.2,4.4-0.1,8.8-0.5,13.3
			c-0.9,8.9-2.9,17.8-6.7,26.5c-0.9,2.2-2,4.3-3,6.4c-1.2,2.1-2.3,4.2-3.7,6.2c-1.3,2-2.9,3.9-4.4,5.8c-1.6,1.8-3.2,3.7-5,5.4
			c-3.5,3.5-7.5,6.5-11.7,9l-3.2,1.8c-1.1,0.6-2.2,1.1-3.3,1.7c-1.1,0.5-2.2,1.1-3.3,1.5l-3.4,1.3l-1.7,0.6l-1.7,0.5l-3.4,1
			c-1.1,0.4-2.4,0.6-3.5,0.9c-1.2,0.2-2.4,0.6-3.6,0.7c-4.9,0.8-9.9,1.1-15,0.8c-10.2-0.7-20.3-4.2-28.5-9.6
			c-8.3-5.4-14.9-12.4-20.1-20c-2.6-3.8-4.8-7.7-6.8-11.7c-0.9-2-1.8-4.1-2.7-6.2c-0.4-1-0.8-2.1-1.1-3.2l-0.5-1.6l-0.5-1.8
			c-1.3-4.5,1.3-9.1,5.7-10.4c3.3-1,6.8,0.2,8.9,2.7L1943.8,1848.6z" />
        </g>
    </g>
    <g>
        <g>
            <path class="st3" d="M1988.9,1777.8c0,15.8,20.6,29.8,39.5,39.2c19.8,9.9,42,9.9,61.8,0c18.9-9.5,39.5-23.4,39.5-39.2
			C2129.8,1730.1,1988.9,1730.1,1988.9,1777.8z" />
        </g>
    </g>
    <g class="st6">
        <path class="st0" d="M2031.4,1768.4c0,4.6,8.2,8.6,15.7,11.3c7.8,2.9,16.6,2.9,24.5,0c7.5-2.7,15.7-6.8,15.7-11.3
		C2087.3,1754.7,2031.4,1754.7,2031.4,1768.4z" />
    </g>
    <g>
        <path class="st0" d="M2666.3,2637c41,2.6,133.1-2.7,181-103.4c48-100.7-21.8-297.6-113.1-322.3c-13.2-3.6-37.8,2.3-45.2,22.8
		c-14.6,40.4,24.1,105.3,24.1,105.3s-141.5,40.5-141.2,133.1C2572.1,2534.1,2582.7,2631.6,2666.3,2637z" />
    </g>
    <g class="st1">
        <path class="st2"
            d="M2847.4,2533.6c-48,100.7-140,106.1-181,103.4c-83.6-5.4-94.2-102.9-94.4-164.5c0-7.3,0.8-14.2,2.4-20.8
		c6.2,55.3,35.7,85.5,100.4,93c51.7,6,142.4-6,172.6-77c6.1-14.4,11.1-30.2,13.5-47.4C2865.8,2461.9,2862.2,2502.4,2847.4,2533.6z" />
    </g>
    <g>
        <g>
            <path class="st3" d="M2680.7,2654.5c-5.6,0-10.8-0.2-15.5-0.5l0,0c-43.2-2.8-75.5-27.6-93.2-71.8c-11.4-28.4-17-64.3-17.1-109.6
			c-0.3-82.7,92.4-127.1,134-142.8c-3-6.2-6.2-13.7-9.3-22c-11.8-32.1-14.1-58.8-6.6-79.5c4.9-13.7,15.6-24.5,30-30.4
			c11.7-4.8,25-5.9,35.7-3c40.8,11,80,51.9,107.7,112c17.2,37.4,28.7,80.1,32.3,120c4,44.2-1.5,83.6-16,114
			c-22.7,47.7-57.1,81-102.2,98.9C2731.6,2651.4,2703,2654.5,2680.7,2654.5z M2667.4,2620.1c43.5,2.8,122.6-5.6,164.6-93.7
			c23.3-48.9,16.5-133.3-16.6-205.2c-23.1-50.2-55.1-85.1-85.7-93.4c-5.4-1.5-20.8,1-24.8,12.1c-9.6,26.7,13.8,75.8,22.7,90.9
			l11.2,18.9l-21.2,6.1c-1.3,0.4-129.1,38.1-128.8,116.7c0.1,40.4,5.1,73.1,14.7,97.1C2616.5,2601.6,2637.4,2618.1,2667.4,2620.1
			L2667.4,2620.1z" />
        </g>
    </g>
    <g>
        <path class="st0" d="M1691.4,2673.5c0,0,153.8,60.9,170.2,211.5c22.8,209.9-153.2,328.3-153.2,328.3" />
    </g>
    <g>
        <g>
            <path class="st3"
                d="M1694.6,2665.6l2.7,0.9c0.9,0.3,1.7,0.6,2.6,0.9c1.7,0.6,3.4,1.2,5.1,1.9c3.4,1.3,6.7,2.7,9.9,4.1
			c6.6,2.8,13,6,19.3,9.3c12.7,6.7,24.9,14.3,36.6,22.7c23.4,16.8,44.8,37.1,62.2,60.9c2.3,2.9,4.3,6,6.4,9c1,1.5,2.1,3,3.1,4.6
			l2.9,4.7l2.9,4.7l0.7,1.2l0.7,1.2l1.3,2.4l2.6,4.9c0.9,1.6,1.8,3.3,2.5,5l4.7,10.1l4.2,10.4c0.3,0.9,0.7,1.7,1,2.6l0.9,2.6
			l1.8,5.3c0.6,1.8,1.2,3.5,1.8,5.3l1.5,5.4l1.5,5.4l0.7,2.7l0.6,2.7l2.3,10.9c0.6,3.7,1.1,7.4,1.7,11c0.3,1.8,0.6,3.7,0.8,5.5
			l0.6,5.4c1.5,14.5,2,29,1.7,43.6c-0.4,14.6-1.7,29.2-3.9,43.6c-0.5,3.6-1.2,7.2-1.8,10.8c-0.7,3.6-1.4,7.2-2.2,10.7
			c-0.8,3.6-1.6,7.1-2.5,10.7l-1.4,5.3l-1.5,5.3c-8.1,28-19.7,55-34.3,80.2c-3.6,6.3-7.4,12.5-11.4,18.5c-3.9,6.1-8.1,12-12.3,17.9
			c-8.5,11.7-17.7,22.8-27.4,33.5c-9.7,10.7-19.9,20.9-30.6,30.5c-2.7,2.4-5.4,4.8-8.1,7.1c-2.8,2.3-5.6,4.6-8.4,6.9
			c-2.8,2.3-5.7,4.5-8.7,6.7c-1.5,1.1-3,2.2-4.5,3.3l-2.3,1.6l-2.6,1.7c-7.8,5.3-18.3,3.2-23.6-4.5c-5.1-7.6-3.3-17.8,3.9-23.2
			l0.7-0.5l1.7-1.2l1.9-1.4c1.3-1,2.5-2,3.8-3c2.5-2,5-4.1,7.5-6.3c5-4.3,9.9-8.7,14.7-13.3c9.6-9.1,18.8-18.7,27.5-28.6
			c8.7-10,16.9-20.3,24.6-31.1c3.9-5.4,7.6-10.8,11.1-16.4c3.6-5.5,7-11.2,10.2-16.9c1.6-2.8,3.2-5.7,4.8-8.6
			c1.5-2.9,3.1-5.8,4.5-8.8c3-5.8,5.7-11.8,8.3-17.8c5.1-12,9.6-24.3,13.3-36.9c3.6-12.5,6.6-25.3,8.7-38.1
			c2.1-12.9,3.4-25.9,3.9-38.9c0.5-13.1,0.1-26.2-1-39.2l-0.4-4.9c-0.1-1.6-0.4-3.2-0.6-4.8c-0.4-3.2-0.8-6.3-1.2-9.5l-1.8-9.4
			l-0.4-2.4l-0.6-2.3l-1.2-4.6l-1.2-4.6c-0.4-1.5-1-3-1.4-4.6l-1.4-4.6l-0.7-2.3c-0.3-0.8-0.6-1.5-0.8-2.2l-3.4-9l-3.9-8.8
			c-0.6-1.5-1.4-2.9-2.1-4.3l-2.2-4.3l-1.1-2.2l-0.5-1.1l-0.6-1l-2.4-4.2l-2.4-4.2c-0.8-1.4-1.7-2.7-2.6-4.1
			c-1.7-2.7-3.4-5.5-5.3-8.1c-14.5-21.5-32.4-40.9-52.4-58.3c-10-8.7-20.6-16.8-31.5-24.6c-5.5-3.8-11.1-7.5-16.8-11.1l-4.3-2.6
			l-4.3-2.6c-1.4-0.8-2.9-1.7-4.3-2.5l-4.2-2.3l-0.5-0.3c-4.1-2.3-5.6-7.4-3.3-11.6C1686.5,2665.9,1690.8,2664.3,1694.6,2665.6z" />
        </g>
    </g>
    <g>
        <path class="st0" d="M1534.1,3162c102.8-11.3,221.8,8.1,237.2,59.9c14.7,49.7,46.9,149.5-197.3,114.7" />
    </g>
    <g>
        <path class="st2"
            d="M1534.1,3204.5c9-7.2,19.5-12.6,30.2-17.1c10.8-4.5,22-7.9,33.4-10.6c22.8-5.4,46.2-8,69.8-8
		c11.8,0,23.7,0.7,35.6,2.2c11.9,1.6,23.8,4,35.7,8c5.9,2,11.9,4.5,17.7,7.7c5.8,3.2,11.6,7.2,16.9,12.6c2.6,2.7,5.1,5.8,7.2,9.3
		c1,1.8,2,3.6,2.8,5.5c0.4,1,0.8,2,1.1,3l0.8,2.4c1.8,5.6,3.6,11.4,5,17.4c1.5,6,2.7,12.2,3.5,18.6c0.4,3.2,0.7,6.5,0.8,9.8
		c0.1,3.3,0.1,6.7-0.1,10.1c-0.2,3.4-0.6,6.9-1.3,10.3c-0.7,3.5-1.5,7-2.6,10.4c-1.2,3.4-2.5,6.8-4.2,10.1c-1.7,3.3-3.6,6.5-5.8,9.4
		c-4.3,6-9.6,11.2-15.1,15.6c-5.6,4.4-11.6,7.9-17.7,10.8c-6.1,2.9-12.2,5.2-18.4,7.1c-6.2,1.9-12.3,3.3-18.5,4.4
		c-12.3,2.3-24.5,3.4-36.5,3.9c-12,0.5-24,0.4-35.8-0.2c-11.8-0.6-23.6-1.6-35.2-3c-11.6-1.4-23.2-3-34.7-5
		c-9.2-1.6-15.5-10.4-13.9-19.6c1.5-9,9.9-15.1,18.8-14l0.1,0c11.1,1.4,22.3,2.7,33.4,3.8c11.1,1.1,22.2,2,33.2,2.5l8.2,0.3l8.2,0.2
		c5.5,0.1,10.9,0.1,16.3-0.1l4.1-0.1l4-0.2c2.7-0.1,5.3-0.4,8-0.6c1.3-0.1,2.6-0.3,4-0.4c1.3-0.1,2.6-0.3,3.9-0.5l3.9-0.5l3.9-0.6
		c10.2-1.7,20.1-4.3,28.7-8.1c8.6-3.8,15.9-8.9,20.8-15.2c2.5-3.2,4.5-6.7,6-10.6c0.7-2,1.4-4,1.9-6.1c0.5-2.1,0.9-4.4,1.1-6.6
		c1-9.2,0.1-19.3-1.8-29.6c-1-5.2-2.2-10.4-3.6-15.8l-0.5-1.7c-0.1-0.4-0.2-0.7-0.3-1.1c-0.2-0.7-0.5-1.4-0.9-2.2
		c-0.7-1.5-1.8-3-3-4.4c-2.5-3-6.1-5.8-10.1-8.4c-4-2.6-8.6-4.8-13.3-6.8c-9.6-3.9-20-7-30.6-9.2c-10.7-2.3-21.6-3.9-32.6-5
		c-22.1-2.1-44.6-2.3-67-0.2c-11.2,1-22.3,2.7-33.3,5.2c-5.5,1.3-11,2.7-16.3,4.5C1544.5,3199.8,1539.2,3202,1534.1,3204.5z" />
    </g>
    <g class="st1">
        <path class="st2"
            d="M1424.8,3236c19.7,21.9,27.4,52.7,49.3,71.8c21.9,19.1,134,37.7,199,37.7h80.1l9.2-94.1
		c0,0-146.5,57.2-233.9,0c-61.5-40.2-24.9-80.1-38-106.8c-16.9-34.1-115.7,1.9-155.7-168.4C1326.6,3065.4,1349.1,3152,1424.8,3236z" />
    </g>
    <g>
        <g>

            <ellipse transform="matrix(0.128 -0.9918 0.9918 0.128 -82.0161 3196.9434)" class="st3" cx="1777.1"
                cy="1645.1" rx="165.7" ry="119.6" />
        </g>
    </g>
    <g>

        <ellipse transform="matrix(0.1092 -0.994 0.994 0.1092 16.117 3251.9641)" class="st0" cx="1822.5" cy="1617"
            rx="57.2" ry="32.1" />
    </g>
    <g>

        <ellipse transform="matrix(0.1628 -0.9867 0.9867 0.1628 -224.2573 3100.322)" class="st0" cx="1714.8" cy="1682.3"
            rx="28.6" ry="16" />
    </g>
    <g>
        <g>

            <ellipse transform="matrix(0.9918 -0.128 0.128 0.9918 -191.2506 315.1385)" class="st3" cx="2355.5"
                cy="1645.1" rx="119.6" ry="165.7" />
        </g>
    </g>
    <g>

        <ellipse transform="matrix(0.994 -0.1092 0.1092 0.994 -162.7881 261.9868)" class="st0" cx="2310.1" cy="1617"
            rx="32.1" ry="57.2" />
    </g>
    <g>

        <ellipse transform="matrix(0.9867 -0.1628 0.1628 0.9867 -241.6312 416.0822)" class="st0" cx="2417.8" cy="1682.3"
            rx="16" ry="28.6" />
    </g>
    <g>
        <path class="st9" d="M3256,2031.6L3256,2031.6c-24.8-40.3-78.9-47-119.1-22.3l-6.3,3.9l-3.9-6.3c-24.8-40.3-76.1-58.7-116.4-33.9
		l0,0c-40.3,24.8-52.8,77.5-28.1,117.8l3.9,6.3l77.9,126.6c6.5,10.6,20.4,13.9,31,7.4l126.6-77.9l6.3-3.9
		C3268.2,2124.6,3280.8,2071.9,3256,2031.6z" />
    </g>
    <g class="st4">
        <path class="st2" d="M3256,2031.6L3256,2031.6c-3.1-5.1-6.8-9.7-10.8-13.7c5.2,33.1-9.4,67.6-39.7,86.3l-6.3,3.9l-126.6,77.9
		c-10.6,6.5-24.5,3.2-31-7.4l-69.8-113.6c2,8.9,5.5,17.7,10.6,25.9l3.9,6.3l77.9,126.6c6.5,10.6,20.4,13.9,31,7.4l126.6-77.9
		l6.3-3.9C3268.2,2124.6,3280.8,2071.9,3256,2031.6z" />
    </g>
    <g class="st10">
        <path class="st0" d="M3017.7,1998.1L3017.7,1998.1c40.3-24.8,91.6-6.4,116.4,33.9l3.9,6.3l6.3-3.9c40.3-24.8,94.4-18,119.1,22.3
		l0,0c1.7,2.8,3.2,5.7,4.6,8.6c-1.5-11.6-5.4-23-11.9-33.6l0,0c-24.8-40.3-78.9-47-119.1-22.3l-6.3,3.9l-3.9-6.3
		c-24.8-40.3-76.1-58.7-116.4-33.9l0,0c-37.5,23-50.9,70.3-32.7,109.2C2973.4,2049.8,2988,2016.3,3017.7,1998.1z" />
    </g>
    <g>
        <path class="st3" d="M3083.3,2246.9c-11.8,0-23.3-5.9-29.9-16.7l-81.7-132.9c-28.3-46.1-13.9-106.6,32.2-134.9
		c22.2-13.6,48.6-16.7,74.3-8.7c22.8,7.1,42.7,22.1,56.6,42.5c21.5-11.9,46.1-16.3,69.7-12.4c26.6,4.4,48.7,19.1,62.3,41.3h0
		c28.3,46.1,13.9,106.6-32.2,134.9l-132.9,81.7C3095.9,2245.3,3089.6,2246.9,3083.3,2246.9z M3050.1,1974.4
		c-11.7,0-23.1,3.2-33.1,9.4c-16.6,10.2-28.3,26.3-32.8,45.3s-1.4,38.6,8.8,55.2l81.7,132.9c2.9,4.7,9.1,6.2,13.8,3.3l132.9-81.7
		c34.3-21.1,45.1-66.2,24-100.6c-9.8-15.9-25.8-26.5-45.2-29.7c-19-3.2-39.6,1-56.8,11.6l-6.3,3.9c-2.8,1.7-6.2,2.3-9.4,1.5
		c-3.2-0.8-6-2.8-7.7-5.6l-3.9-6.3c-10.5-17.1-27.1-30.2-45.4-36C3063.8,1975.4,3056.9,1974.4,3050.1,1974.4z" />
    </g>
</svg>