<svg width="16" height="16" viewBox="0 0 16 16" fill="none" xmlns="http://www.w3.org/2000/svg">
    <g clip-path="url(#clip0_53_4865)">
        <g clip-path="url(#clip1_53_4865)">
            <g clip-path="url(#clip2_53_4865)">
                <path
                    d="M11.334 1.99984H14.0007C14.1775 1.99984 14.347 2.07008 14.4721 2.1951C14.5971 2.32012 14.6673 2.48969 14.6673 2.6665V13.3332C14.6673 13.51 14.5971 13.6796 14.4721 13.8046C14.347 13.9296 14.1775 13.9998 14.0007 13.9998H2.00065C1.82384 13.9998 1.65427 13.9296 1.52925 13.8046C1.40422 13.6796 1.33398 13.51 1.33398 13.3332V2.6665C1.33398 2.48969 1.40422 2.32012 1.52925 2.1951C1.65427 2.07008 1.82384 1.99984 2.00065 1.99984H4.66732V0.666504H6.00065V1.99984H10.0007V0.666504H11.334V1.99984ZM13.334 5.99984V3.33317H11.334V4.6665H10.0007V3.33317H6.00065V4.6665H4.66732V3.33317H2.66732V5.99984H13.334ZM13.334 7.33317H2.66732V12.6665H13.334V7.33317ZM4.00065 8.6665H7.33398V11.3332H4.00065V8.6665Z"
                    fill="#999999" />
            </g>
        </g>
    </g>
    <defs>
        <clipPath id="clip0_53_4865">
            <rect width="16" height="16" fill="white" />
        </clipPath>
        <clipPath id="clip1_53_4865">
            <rect width="16" height="16" fill="white" />
        </clipPath>
        <clipPath id="clip2_53_4865">
            <rect width="16" height="16" fill="white" />
        </clipPath>
    </defs>
</svg>