<!-- <svg xmlns="http://www.w3.org/2000/svg" class="h-6 w-6 cart" fill="none" viewBox="0 0 24 24" stroke="currentColor">
    <path stroke-linecap="round" stroke-linejoin="round" stroke-width="2"
        d="M3 3h2l.4 2M7 13h10l4-8H5.4M7 13L5.4 5M7 13l-2.293 2.293c-.63.63-.184 1.707.707 1.707H17m0 0a2 2 0 100 4 2 2 0 000-4zm-8 2a2 2 0 11-4 0 2 2 0 014 0z" />
</svg> -->
<svg width="24" height="24" viewBox="0 0 24 24" fill="none" xmlns="http://www.w3.org/2000/svg">
    <path
        d="M9.93091 22.1538C9.93091 22.519 9.83384 22.8759 9.65197 23.1795C9.47009 23.4831 9.21159 23.7197 8.90916 23.8595C8.60672 23.9992 8.27392 24.0358 7.95285 23.9645C7.63178 23.8933 7.33687 23.7175 7.10539 23.4593C6.87391 23.2011 6.71627 22.8721 6.65241 22.514C6.58854 22.1559 6.62132 21.7847 6.7466 21.4474C6.87187 21.11 7.08402 20.8217 7.3562 20.6188C7.62839 20.416 7.9484 20.3077 8.27576 20.3077C8.71473 20.3077 9.13572 20.5022 9.44613 20.8484C9.75653 21.1946 9.93091 21.6642 9.93091 22.1538ZM19.0342 20.3077C18.7069 20.3077 18.3869 20.416 18.1147 20.6188C17.8425 20.8217 17.6304 21.11 17.5051 21.4474C17.3798 21.7847 17.347 22.1559 17.4109 22.514C17.4748 22.8721 17.6324 23.2011 17.8639 23.4593C18.0954 23.7175 18.3903 23.8933 18.7113 23.9645C19.0324 24.0358 19.3652 23.9992 19.6676 23.8595C19.9701 23.7197 20.2286 23.4831 20.4104 23.1795C20.5923 22.8759 20.6894 22.519 20.6894 22.1538C20.6894 21.6642 20.515 21.1946 20.2046 20.8484C19.8942 20.5022 19.4732 20.3077 19.0342 20.3077ZM23.9635 5.80961L21.0121 16.5069C20.8576 17.074 20.5432 17.5704 20.1158 17.9225C19.6883 18.2746 19.1705 18.4636 18.6391 18.4615H8.69679C8.1578 18.4593 7.63397 18.2623 7.20374 17.9002C6.77352 17.5381 6.46004 17.0302 6.31026 16.4527L2.56755 1.84615H0.827576C0.608089 1.84615 0.397592 1.7489 0.242391 1.57579C0.0871908 1.40268 0 1.16789 0 0.923077C0 0.678262 0.0871908 0.443473 0.242391 0.270363C0.397592 0.0972524 0.608089 0 0.827576 0H2.56755C2.92694 0.00132975 3.27627 0.132448 3.56327 0.373728C3.85026 0.615009 4.05948 0.953473 4.1596 1.33846L4.99856 4.61538H23.1721C23.3016 4.61533 23.4293 4.64918 23.545 4.71421C23.6606 4.77924 23.761 4.87363 23.8379 4.98979C23.9149 5.10596 23.9664 5.24065 23.9882 5.38304C24.01 5.52543 24.0015 5.67154 23.9635 5.80961ZM22.0518 6.46154H5.47131L7.90128 15.9462C7.95072 16.1389 8.05509 16.3085 8.19862 16.4293C8.34214 16.55 8.51701 16.6153 8.69679 16.6154H18.6391C18.8162 16.6155 18.9886 16.5522 19.131 16.4348C19.2735 16.3175 19.3784 16.1523 19.4304 15.9635L22.0518 6.46154Z"
        fill="rgb(229 231 235)" />
</svg>