<svg width="11" height="12" viewBox="0 0 11 12" fill="none" xmlns="http://www.w3.org/2000/svg">
    <path
        d="M8.19234 3.62047H9.82808C9.92701 3.62056 10.0224 3.65738 10.0957 3.72378C10.1691 3.79018 10.2151 3.88144 10.225 3.97988L10.4686 6.41592H9.66515L9.46547 4.41917H8.19234V5.61722C8.19234 5.72313 8.15027 5.82471 8.07537 5.8996C8.00048 5.97449 7.8989 6.01657 7.79299 6.01657C7.68708 6.01657 7.5855 5.97449 7.51061 5.8996C7.43571 5.82471 7.39364 5.72313 7.39364 5.61722V4.41917H4.19884V5.61722C4.19884 5.72313 4.15676 5.82471 4.08187 5.8996C4.00698 5.97449 3.9054 6.01657 3.79948 6.01657C3.69357 6.01657 3.59199 5.97449 3.5171 5.8996C3.44221 5.82471 3.40013 5.72313 3.40013 5.61722V4.41917H2.12621L1.48724 10.8088H5.79624V11.6075H1.04556C0.989785 11.6074 0.934637 11.5957 0.883672 11.573C0.832707 11.5503 0.787055 11.5173 0.749659 11.4759C0.712262 11.4345 0.683949 11.3857 0.666545 11.3327C0.649141 11.2797 0.64303 11.2237 0.648608 11.1682L1.36744 3.97988C1.37733 3.88144 1.42341 3.79018 1.49675 3.72378C1.57009 3.65738 1.66546 3.62056 1.76439 3.62047H3.40013V3.34172C3.40013 1.95677 4.4672 0.825012 5.79624 0.825012C7.12528 0.825012 8.19234 1.95677 8.19234 3.34172V3.62126V3.62047ZM7.39364 3.62047V3.34172C7.39364 2.38807 6.67321 1.62371 5.79624 1.62371C4.91926 1.62371 4.19884 2.38807 4.19884 3.34172V3.62126H7.39364V3.62047ZM9.90715 9.5628C9.94358 9.52316 9.98765 9.4913 10.0367 9.46913C10.0858 9.44696 10.1388 9.43494 10.1926 9.43378C10.2464 9.43263 10.2999 9.44237 10.3499 9.46242C10.3999 9.48247 10.4453 9.51242 10.4834 9.55046C10.5215 9.5885 10.5515 9.63385 10.5716 9.68378C10.5917 9.73372 10.6015 9.7872 10.6004 9.84103C10.5994 9.89485 10.5874 9.94791 10.5653 9.997C10.5432 10.0461 10.5114 10.0902 10.4718 10.1267L8.87443 11.7241C8.79954 11.799 8.69798 11.841 8.59209 11.841C8.4862 11.841 8.38464 11.799 8.30975 11.7241L6.71235 10.1267C6.67421 10.0898 6.64378 10.0458 6.62285 9.99706C6.60192 9.94834 6.59091 9.89593 6.59045 9.84291C6.58999 9.78988 6.60009 9.7373 6.62017 9.68822C6.64025 9.63914 6.6699 9.59455 6.7074 9.55705C6.74489 9.51956 6.78948 9.4899 6.83856 9.46982C6.88764 9.44975 6.94023 9.43964 6.99325 9.4401C7.04628 9.44056 7.09868 9.45158 7.1474 9.47251C7.19612 9.49344 7.24019 9.52386 7.27703 9.562L8.19234 10.4781V7.61397C8.19234 7.50806 8.23442 7.40648 8.30931 7.33159C8.3842 7.2567 8.48578 7.21462 8.59169 7.21462C8.69761 7.21462 8.79918 7.2567 8.87408 7.33159C8.94897 7.40648 8.99104 7.50806 8.99104 7.61397V10.4781L9.90715 9.562V9.5628Z"
        fill="#242424" />
</svg>