<svg width="24" height="24" viewBox="0 0 24 24" fill="none" xmlns="http://www.w3.org/2000/svg">
    <path
        d="M8.15385 8.53846V7.15385C8.15385 6.05218 8.59148 4.99563 9.37048 4.21663C10.1495 3.43764 11.206 3 12.3077 3C13.4094 3 14.4659 3.43764 15.2449 4.21663C16.0239 4.99563 16.4615 6.05218 16.4615 7.15385V8.53846M4.69231 8.53846C4.5087 8.53846 4.33261 8.6114 4.20277 8.74123C4.07294 8.87107 4 9.04716 4 9.23077V18.5769C4 19.8854 5.11462 21 6.42308 21H18.1923C19.5008 21 20.6154 19.9395 20.6154 18.631V9.23077C20.6154 9.04716 20.5424 8.87107 20.4126 8.74123C20.2828 8.6114 20.1067 8.53846 19.9231 8.53846H4.69231Z"
        stroke="black" stroke-width="1.5" stroke-linecap="round" stroke-linejoin="round" />
</svg>