<svg width="25" height="24" viewBox="0 0 25 24" fill="none" xmlns="http://www.w3.org/2000/svg">
    <path
        d="M10.4309 22.1538C10.4309 22.519 10.3338 22.8759 10.152 23.1795C9.97009 23.4831 9.71159 23.7197 9.40916 23.8595C9.10672 23.9992 8.77392 24.0358 8.45285 23.9645C8.13178 23.8933 7.83687 23.7175 7.60539 23.4593C7.37391 23.2011 7.21627 22.8721 7.15241 22.514C7.08854 22.1559 7.12132 21.7847 7.2466 21.4474C7.37187 21.11 7.58402 20.8217 7.8562 20.6188C8.12839 20.416 8.4484 20.3077 8.77576 20.3077C9.21473 20.3077 9.63572 20.5022 9.94613 20.8484C10.2565 21.1946 10.4309 21.6642 10.4309 22.1538ZM19.5342 20.3077C19.2069 20.3077 18.8869 20.416 18.6147 20.6188C18.3425 20.8217 18.1304 21.11 18.0051 21.4474C17.8798 21.7847 17.847 22.1559 17.9109 22.514C17.9748 22.8721 18.1324 23.2011 18.3639 23.4593C18.5954 23.7175 18.8903 23.8933 19.2113 23.9645C19.5324 24.0358 19.8652 23.9992 20.1676 23.8595C20.4701 23.7197 20.7286 23.4831 20.9104 23.1795C21.0923 22.8759 21.1894 22.519 21.1894 22.1538C21.1894 21.6642 21.015 21.1946 20.7046 20.8484C20.3942 20.5022 19.9732 20.3077 19.5342 20.3077ZM24.4635 5.80961L21.5121 16.5069C21.3576 17.074 21.0432 17.5704 20.6158 17.9225C20.1883 18.2746 19.6705 18.4636 19.1391 18.4615H9.19679C8.6578 18.4593 8.13397 18.2623 7.70374 17.9002C7.27352 17.5381 6.96004 17.0302 6.81026 16.4527L3.06755 1.84615H1.32758C1.10809 1.84615 0.897592 1.7489 0.742391 1.57579C0.587191 1.40268 0.5 1.16789 0.5 0.923077C0.5 0.678262 0.587191 0.443473 0.742391 0.270363C0.897592 0.0972524 1.10809 0 1.32758 0H3.06755C3.42694 0.00132975 3.77627 0.132448 4.06327 0.373728C4.35026 0.615009 4.55948 0.953473 4.6596 1.33846L5.49856 4.61538H23.6721C23.8016 4.61533 23.9293 4.64918 24.045 4.71421C24.1606 4.77924 24.261 4.87363 24.3379 4.98979C24.4149 5.10596 24.4664 5.24065 24.4882 5.38304C24.51 5.52543 24.5015 5.67154 24.4635 5.80961ZM22.5518 6.46154H5.97131L8.40128 15.9462C8.45072 16.1389 8.55509 16.3085 8.69862 16.4293C8.84214 16.55 9.01701 16.6153 9.19679 16.6154H19.1391C19.3162 16.6155 19.4886 16.5522 19.631 16.4348C19.7735 16.3175 19.8784 16.1523 19.9304 15.9635L22.5518 6.46154Z"
        fill="white" />
</svg>