<svg width="32" height="32" viewBox="0 0 32 32" fill="none" xmlns="http://www.w3.org/2000/svg">
    <path fill-rule="evenodd" clip-rule="evenodd"
        d="M8.37965 5.33334H23.6177C24.426 5.33334 25.2012 5.65442 25.7727 6.22596C26.3443 6.7975 26.6654 7.57268 26.6654 8.38095V23.6191C26.6654 24.4273 26.3443 25.2025 25.7727 25.774C25.2012 26.3456 24.426 26.6667 23.6177 26.6667H8.37965C7.57137 26.6667 6.7962 26.3456 6.22466 25.774C5.65312 25.2025 5.33203 24.4273 5.33203 23.6191V8.38095C5.33203 7.57268 5.65312 6.7975 6.22466 6.22596C6.7962 5.65442 7.57137 5.33334 8.37965 5.33334Z"
        stroke="#454545" stroke-linecap="round" stroke-linejoin="round" />
    <path d="M26.6654 20.5714L22.0939 16L17.5225 20.5486M23.6177 26.6667L9.90346 12.9524L5.33203 17.5238"
        stroke="#454545" stroke-linecap="round" stroke-linejoin="round" />
    <path
        d="M21.3324 12.1905C22.174 12.1905 22.8562 11.5082 22.8562 10.6667C22.8562 9.82509 22.174 9.14286 21.3324 9.14286C20.4908 9.14286 19.8086 9.82509 19.8086 10.6667C19.8086 11.5082 20.4908 12.1905 21.3324 12.1905Z"
        fill="#454545" />
</svg>