<svg width="24" height="24" viewBox="0 0 24 24" fill="none" xmlns="http://www.w3.org/2000/svg">
    <path fill-rule="evenodd" clip-rule="evenodd"
        d="M12.012 5.57202L10.925 4.48502C10.4155 3.96868 9.80897 3.55822 9.14022 3.27726C8.47146 2.99631 7.75374 2.85042 7.02837 2.84799C6.30301 2.84556 5.58432 2.98664 4.9137 3.26311C4.24308 3.53957 3.63378 3.94596 3.12086 4.45887C2.60795 4.97179 2.20156 5.5811 1.92509 6.25172C1.64863 6.92234 1.50755 7.64102 1.50998 8.36639C1.51241 9.09175 1.6583 9.80948 1.93925 10.4782C2.2202 11.147 2.63067 11.7536 3.14701 12.263L11.986 21.102L11.988 21.1L12.014 21.126L20.853 12.287C21.3693 11.7776 21.7798 11.171 22.0608 10.5022C22.3417 9.83348 22.4876 9.11575 22.49 8.39039C22.4925 7.66502 22.3514 6.94634 22.0749 6.27572C21.7985 5.6051 21.3921 4.99579 20.8792 4.48287C20.3662 3.96996 19.7569 3.56357 19.0863 3.28711C18.4157 3.01064 17.697 2.86956 16.9716 2.87199C16.2463 2.87442 15.5285 3.02031 14.8598 3.30126C14.191 3.58222 13.5845 3.99268 13.075 4.50902L12.012 5.57202ZM11.988 18.272L16.924 13.335L18.374 11.935H18.376L19.439 10.873C20.0954 10.2166 20.4642 9.32632 20.4642 8.39802C20.4642 7.46971 20.0954 6.57943 19.439 5.92302C18.7826 5.26661 17.8923 4.89784 16.964 4.89784C16.0357 4.89784 15.1454 5.26661 14.489 5.92302L12.013 8.40002L12.006 8.39302L9.51101 5.90002C8.8546 5.24361 7.96431 4.87484 7.03601 4.87484C6.1077 4.87484 5.21742 5.24361 4.56101 5.90002C3.9046 6.55643 3.53583 7.44671 3.53583 8.37502C3.53583 9.30332 3.9046 10.1936 4.56101 10.85L7.10101 13.39L7.10201 13.387L11.988 18.273V18.272Z"
        fill="rgb(229 231 235)" />
</svg>