<svg width="24" height="24" viewBox="0 0 24 24" fill="none" xmlns="http://www.w3.org/2000/svg">
    <path
        d="M18.894 17.394L13.5915 22.698C13.3825 22.9071 13.1344 23.073 12.8614 23.1861C12.5883 23.2993 12.2956 23.3575 12 23.3575C11.7044 23.3575 11.4117 23.2993 11.1386 23.1861C10.8655 23.073 10.6174 22.9071 10.4085 22.698L5.106 17.394C4.20057 16.4887 3.48232 15.4139 2.99226 14.231C2.50221 13.048 2.24995 11.7802 2.24988 10.4998C2.24981 9.21939 2.50193 7.95151 2.99186 6.76855C3.48178 5.58558 4.19991 4.5107 5.10525 3.60526C6.01058 2.69983 7.08539 1.98159 8.2683 1.49153C9.45121 1.00148 10.7191 0.749215 11.9995 0.749146C13.2799 0.749076 14.5478 1.0012 15.7307 1.49113C16.9137 1.98105 17.9886 2.69918 18.894 3.60451C19.7995 4.5099 20.5178 5.58479 21.0079 6.7678C21.4979 7.95081 21.7502 9.21877 21.7502 10.4993C21.7502 11.7798 21.4979 13.0477 21.0079 14.2307C20.5178 15.4137 19.7995 16.4886 18.894 17.394ZM17.304 5.19601C15.8973 3.78931 13.9894 2.99753 12 2.99753C10.0106 2.99753 8.10271 3.78781 6.696 5.19451C5.28929 6.60122 4.49901 8.50913 4.49901 10.4985C4.49901 12.4879 5.28929 14.3958 6.696 15.8025L12 21.105L17.304 15.804C18.0006 15.1075 18.5533 14.2807 18.9303 13.3706C19.3073 12.4605 19.5014 11.4851 19.5014 10.5C19.5014 9.51493 19.3073 8.5395 18.9303 7.62943C18.5533 6.71936 18.0006 5.89248 17.304 5.19601ZM12 13.5C11.6005 13.509 11.2032 13.4382 10.8315 13.2916C10.4597 13.1449 10.121 12.9255 9.83524 12.6462C9.54946 12.3669 9.32236 12.0333 9.16729 11.665C9.01221 11.2967 8.93227 10.9011 8.93217 10.5015C8.93207 10.1019 9.01181 9.70632 9.1667 9.33795C9.3216 8.96958 9.54853 8.63586 9.83416 8.3564C10.1198 8.07694 10.4584 7.85736 10.8301 7.71056C11.2017 7.56375 11.599 7.49268 11.9985 7.50151C12.7823 7.51885 13.5282 7.84235 14.0766 8.40277C14.6249 8.96319 14.932 9.716 14.9322 10.5C14.9324 11.2841 14.6256 12.037 14.0776 12.5977C13.5296 13.1584 12.7838 13.4823 12 13.5Z"
        fill="#242424" />
    <circle cx="20" cy="4" r="4" fill="#FF0000" />
</svg>