<svg width="24" height="24" viewBox="0 0 24 24" fill="none" xmlns="http://www.w3.org/2000/svg">
    <path fill-rule="evenodd" clip-rule="evenodd"
        d="M2.76923 6C2.56522 6 2.36956 6.07024 2.2253 6.19526C2.08104 6.32029 2 6.48986 2 6.66667C2 6.84348 2.08104 7.01305 2.2253 7.13807C2.36956 7.2631 2.56522 7.33333 2.76923 7.33333H21.2308C21.4348 7.33333 21.6304 7.2631 21.7747 7.13807C21.919 7.01305 22 6.84348 22 6.66667C22 6.48986 21.919 6.32029 21.7747 6.19526C21.6304 6.07024 21.4348 6 21.2308 6H2.76923ZM2 12C2 11.8232 2.08104 11.6536 2.2253 11.5286C2.36956 11.4036 2.56522 11.3333 2.76923 11.3333H21.2308C21.4348 11.3333 21.6304 11.4036 21.7747 11.5286C21.919 11.6536 22 11.8232 22 12C22 12.1768 21.919 12.3464 21.7747 12.4714C21.6304 12.5964 21.4348 12.6667 21.2308 12.6667H2.76923C2.56522 12.6667 2.36956 12.5964 2.2253 12.4714C2.08104 12.3464 2 12.1768 2 12ZM2 17.3333C2 17.1565 2.08104 16.987 2.2253 16.8619C2.36956 16.7369 2.56522 16.6667 2.76923 16.6667H21.2308C21.4348 16.6667 21.6304 16.7369 21.7747 16.8619C21.919 16.987 22 17.1565 22 17.3333C22 17.5101 21.919 17.6797 21.7747 17.8047C21.6304 17.9298 21.4348 18 21.2308 18H2.76923C2.56522 18 2.36956 17.9298 2.2253 17.8047C2.08104 17.6797 2 17.5101 2 17.3333Z"
        fill="black" />
</svg>