<svg width="24" height="24" viewBox="0 0 24 24" fill="none" xmlns="http://www.w3.org/2000/svg">
    <path
        d="M11.6476 5.34153C9.41335 2.21703 4.7671 2.22003 2.5381 5.34828C1.79038 6.39738 1.4275 7.67233 1.51071 8.95793C1.59393 10.2435 2.11813 11.4611 2.99485 12.405L11.4511 21.51C11.5212 21.5855 11.6062 21.6457 11.7006 21.6869C11.795 21.7281 11.8969 21.7494 11.9999 21.7494C12.103 21.7495 12.2049 21.7283 12.2994 21.6873C12.3938 21.6462 12.4789 21.5861 12.5491 21.5108L21.0001 12.4373C21.886 11.4859 22.414 10.2564 22.4939 8.9589C22.5738 7.66138 22.2006 6.37639 21.4381 5.32353C19.1806 2.20728 14.5261 2.23803 12.3098 5.38428L11.9971 5.82903L11.6483 5.34153H11.6476Z"
        fill="#FF6161" />
</svg>