<svg width="32" height="32" viewBox="0 0 32 32" fill="none" xmlns="http://www.w3.org/2000/svg">
    <g clip-path="url(#clip0_2762_5144)">
        <path
            d="M10.9923 9.78667L2.48564 11.02L2.33497 11.0507C2.10689 11.1112 1.89897 11.2312 1.73243 11.3984C1.56589 11.5656 1.44671 11.774 1.38706 12.0023C1.3274 12.2306 1.32941 12.4707 1.39288 12.698C1.45634 12.9253 1.579 13.1316 1.74831 13.296L7.91097 19.2947L6.45764 27.768L6.44031 27.9147C6.42635 28.1506 6.47533 28.3859 6.58224 28.5967C6.68915 28.8074 6.85015 28.986 7.04876 29.114C7.24736 29.2421 7.47643 29.3151 7.71251 29.3255C7.94859 29.3359 8.18319 29.2834 8.39231 29.1733L16.0003 25.1733L23.591 29.1733L23.7243 29.2347C23.9444 29.3214 24.1836 29.3479 24.4173 29.3117C24.6511 29.2754 24.871 29.1776 25.0544 29.0284C25.2379 28.8791 25.3784 28.6837 25.4614 28.4622C25.5445 28.2407 25.5671 28.0011 25.527 27.768L24.0723 19.2947L30.2376 13.2947L30.3416 13.1813C30.4902 12.9984 30.5876 12.7793 30.6239 12.5464C30.6603 12.3135 30.6342 12.0752 30.5484 11.8556C30.4626 11.6361 30.3202 11.4432 30.1356 11.2967C29.951 11.1501 29.7309 11.0551 29.4976 11.0213L20.991 9.78667L17.1883 2.08C17.0783 1.85671 16.9079 1.66869 16.6966 1.53721C16.4852 1.40572 16.2412 1.33604 15.9923 1.33604C15.7434 1.33604 15.4994 1.40572 15.2881 1.53721C15.0767 1.66869 14.9063 1.85671 14.7963 2.08L10.9923 9.78667Z"
            fill="#FFA500" />
    </g>
    <defs>
        <clipPath id="clip0_2762_5144">
            <rect width="32" height="32" fill="white" />
        </clipPath>
    </defs>
</svg>