<svg width="24" height="24" viewBox="0 0 24 24" fill="none" xmlns="http://www.w3.org/2000/svg">
    <path
        d="M11.8707 12.0603C10.95 12.0603 10.05 11.7873 9.28441 11.2758C8.51887 10.7643 7.92221 10.0373 7.56987 9.18663C7.21753 8.33601 7.12534 7.40001 7.30496 6.49699C7.48458 5.59398 7.92795 4.76451 8.57898 4.11347C9.23002 3.46243 10.0595 3.01907 10.9625 2.83945C11.8655 2.65983 12.8015 2.75202 13.6521 3.10436C14.5028 3.45669 15.2298 4.05336 15.7413 4.8189C16.2528 5.58444 16.5259 6.48447 16.5259 7.40517C16.5259 8.6398 16.0354 9.82386 15.1624 10.6969C14.2894 11.5699 13.1053 12.0603 11.8707 12.0603ZM11.8707 4.61207C11.3183 4.61207 10.7782 4.77588 10.3189 5.08279C9.8596 5.3897 9.5016 5.82593 9.2902 6.3363C9.07879 6.84667 9.02348 7.40827 9.13125 7.95008C9.23903 8.49189 9.50504 8.98957 9.89567 9.3802C10.2863 9.77082 10.784 10.0368 11.3258 10.1446C11.8676 10.2524 12.4292 10.1971 12.9396 9.98566C13.4499 9.77426 13.8862 9.41626 14.1931 8.95694C14.5 8.49762 14.6638 7.9576 14.6638 7.40517C14.6638 6.6644 14.3695 5.95396 13.8457 5.43015C13.3219 4.90634 12.6115 4.61207 11.8707 4.61207ZM20.5603 20.75C20.3144 20.7468 20.0795 20.6477 19.9056 20.4738C19.7316 20.2998 19.6325 20.0649 19.6293 19.819C19.6293 17.3983 18.3134 15.7845 11.8707 15.7845C5.42793 15.7845 4.11207 17.3983 4.11207 19.819C4.11207 20.0659 4.01398 20.3027 3.83938 20.4773C3.66477 20.6519 3.42796 20.75 3.18103 20.75C2.93411 20.75 2.6973 20.6519 2.52269 20.4773C2.34809 20.3027 2.25 20.0659 2.25 19.819C2.25 13.9224 8.99069 13.9224 11.8707 13.9224C14.7507 13.9224 21.4914 13.9224 21.4914 19.819C21.4882 20.0649 21.389 20.2998 21.2151 20.4738C21.0412 20.6477 20.8063 20.7468 20.5603 20.75Z"
        fill="black" />
</svg>