<svg width="113" height="32" viewBox="0 0 113 32" fill="none" xmlns="http://www.w3.org/2000/svg">
    <g clip-path="url(#clip0_2820_3898)">
        <path
            d="M24.1132 9.23506H28.0614C27.3923 8.08847 27.1056 6.43118 27.1056 6.43118C26.4365 2.32154 29.3362 0.919983 32.8386 0.919983C34.2409 0.919983 35.9608 1.27075 37.2032 1.93985V4.90214C36.4707 4.51969 35.4192 4.26548 34.4959 4.26548H34.247C30.5809 4.45859 31.4408 9.23506 31.4408 9.23506H36.1237V12.6122H31.4408V24.8778H26.9804V12.6122H24.1139L24.1132 9.23506Z"
            fill="#2E2733" />
        <path d="M38.1952 1.27075H42.7831V24.8816H38.1952V1.27075Z" fill="#2E2733" />
        <path
            d="M52.723 8.7583C57.3101 8.7583 61.5156 11.8511 61.5156 17.0417C61.5156 22.267 57.3101 25.3568 52.723 25.3568C48.1358 25.3568 43.8972 22.264 43.8972 17.0417C43.898 11.8511 48.1351 8.7583 52.723 8.7583ZM48.2943 17.0402C48.2943 20.4174 50.3649 22.2331 52.723 22.2331C55.0486 22.2331 57.151 20.4174 57.151 17.0402C57.151 13.6954 55.0486 11.879 52.723 11.879C50.3649 11.879 48.2943 13.6954 48.2943 17.0402Z"
            fill="#2E2733" />
        <path
            d="M62.6312 9.23508H65.4977L66.5176 14.0455H66.7726C67.4417 9.51947 69.9265 8.6897 72.3154 8.6897C72.7296 8.6897 73.1452 8.72138 73.5224 8.75306V13.2451C73.1399 12.9585 72.1525 12.6417 71.0693 12.6417C69.2219 12.6417 67.0871 13.5657 67.0871 17.1021V24.8756H62.6267L62.6312 9.23508Z"
            fill="#2E2733" />
        <path d="M74.0693 12.8348V9.23511H80.3771V24.8778H75.7892V12.8348H74.0693Z" fill="#2E2733" />
        <path
            d="M77.3823 1.9693C78.9114 1.9693 80.1538 3.2117 80.1538 4.70906C80.1532 5.44391 79.861 6.14849 79.3414 6.6681C78.8218 7.18772 78.1172 7.4799 77.3823 7.4805C75.885 7.4805 74.6426 6.2381 74.6426 4.70906C74.6479 3.98408 74.9383 3.2903 75.4509 2.77765C75.9636 2.265 76.6574 1.97463 77.3823 1.9693Z"
            fill="#2E2733" />
        <path
            d="M81.6829 9.23506H85.6333C84.9642 8.08847 84.6776 6.43118 84.6776 6.43118C84.0085 2.32154 86.9082 0.919983 90.4106 0.919983C91.8121 0.919983 93.5328 1.27075 94.7752 1.93985V4.90214C94.0427 4.51969 92.9912 4.26548 92.0671 4.26548H91.8121C88.1506 4.45859 89.012 9.23506 89.012 9.23506H93.695V12.6122H89.012V24.8778H84.5516V12.6122H81.6851L81.6829 9.23506Z"
            fill="#2E2733" />
        <path
            d="M93.28 25.8653H94.9713C95.3854 27.2668 96.756 28.7008 98.795 28.7008C100.961 28.7008 102.617 26.8844 103.127 24.8778H100.324L94.6529 9.23511H99.2408L103.414 21.7873H104.115L108.384 9.23511H112.972L107.17 24.7504C105.801 28.4142 103.124 31.1539 99.0462 31.1539C96.0839 30.9307 93.5984 28.7008 93.28 25.8653Z"
            fill="#2E2733" />
        <path
            d="M16.5495 9.03143V17.9998C16.5497 18.8766 16.3771 19.7449 16.0415 20.555C15.706 21.3651 15.2141 22.1011 14.594 22.7211C13.9739 23.341 13.2377 23.8326 12.4274 24.1679C11.6172 24.5031 10.7489 24.6754 9.87205 24.6749H6.7091C5.83234 24.6754 4.96407 24.5031 4.15394 24.1678C3.3438 23.8326 2.6077 23.3409 1.98769 22.721C1.36769 22.101 0.875948 21.365 0.540584 20.5549C0.205219 19.7448 0.0328072 18.8765 0.0332038 17.9998V9.03143L8.29171 19.264L16.5495 9.03143Z"
            fill="#9B74BA" />
        <path
            d="M8.29172 19.264L6.19239 21.8635C4.85268 23.523 2.26983 23.4182 1.10588 21.6297C0.403954 20.5493 0.0312727 19.2881 0.0332106 17.9998V9.03143L8.29172 19.264Z"
            fill="#5C0099" />
        <path
            d="M8.83789 6.87774C8.83789 6.57612 8.59337 6.3316 8.29175 6.3316C7.99012 6.3316 7.74561 6.57612 7.74561 6.87774V10.7467C7.74561 11.0484 7.99012 11.2929 8.29175 11.2929C8.59337 11.2929 8.83789 11.0484 8.83789 10.7467V6.87774Z"
            fill="#FFA500" />
        <path
            d="M5.7293 12.5842C5.919 12.8187 6.26288 12.8551 6.49739 12.6654C6.73189 12.4757 6.76822 12.1318 6.57852 11.8973L4.28046 9.05638C4.09076 8.82187 3.74688 8.78555 3.51237 8.97524C3.27787 9.16494 3.24154 9.50882 3.43124 9.74333L5.7293 12.5842Z"
            fill="#FFA500" />
        <path
            d="M13.1596 9.74895C13.3493 9.51445 13.3129 9.17056 13.0784 8.98087C12.8439 8.79117 12.5 8.82749 12.3103 9.062L10.0123 11.9029C9.82258 12.1374 9.8589 12.4813 10.0934 12.671C10.3279 12.8607 10.6718 12.8244 10.8615 12.5899L13.1596 9.74895Z"
            fill="#FFA500" />
    </g>
    <defs>
        <clipPath id="clip0_2820_3898">
            <rect width="113" height="30.3244" fill="white" transform="translate(0 0.837769)" />
        </clipPath>
    </defs>
</svg>