<?xml version="1.0" encoding="UTF-8"?>
<svg xmlns="http://www.w3.org/2000/svg" viewBox="0 0 875.55 972.4">
    <defs>
        <style>
            .cls-1 {
                fill: orange;
            }

            .cls-2 {
                fill: #9b74ba;
            }

            .cls-3 {
                fill: #5c0099;
            }
        </style>
    </defs>
    <g id="Layer_7" data-name="Layer 7">
        <path class="cls-2"
            d="m875.55,143.11v475.4c0,150.23-93.61,278.47-225.65,329.85-39.67,15.43-83.05,24.03-128.36,24.03h-167.66c-45.31,0-88.57-8.6-128.36-24.03-67.78-26.39-125.4-73.06-165.47-132.6,63.06,90.13,196.62,94.01,266.43,7.6l111.28-137.8L875.55,143.11Z" />
    </g>
    <g id="Layer_6" data-name="Layer 6">
        <path class="cls-3"
            d="m437.78,685.58l-111.28,137.8c-69.82,86.41-203.37,82.53-266.43-7.6-.12-.24-.28-.44-.44-.68-1.24-1.8-2.44-3.64-3.6-5.48-2.56-3.92-5-7.88-7.36-11.88-.92-1.64-1.88-3.32-2.84-4.96-1.12-1.92-2.16-3.84-3.2-5.76s-2.08-3.84-3.08-5.8c-1-1.96-2-3.92-2.96-5.88-1.96-3.96-3.84-7.92-5.64-11.96-1.84-4-3.56-8.08-5.2-12.16-.84-2.04-1.64-4.12-2.44-6.16-.84-2.16-1.64-4.32-2.44-6.52-.72-2-1.4-4-2.08-6-4.08-11.92-7.52-24.11-10.28-36.55-.48-2.08-.92-4.16-1.32-6.24-.44-2.12-.84-4.2-1.24-6.32-.36-1.88-.68-3.76-1-5.68-.08-.44-.16-.92-.24-1.36-.28-1.72-.56-3.44-.8-5.16-.08-.32-.12-.64-.16-.92-.28-2-.56-4-.8-6-.2-1.4-.36-2.8-.52-4.2-.2-1.56-.36-3.16-.52-4.76-.16-1.32-.28-2.64-.4-3.96-.28-2.76-.48-5.48-.68-8.24-.12-1.6-.2-3.24-.28-4.84-.36-6.56-.56-13.16-.56-19.83V143.11l437.78,542.46Z" />
    </g>
    <g id="Layer_5" data-name="Layer 5">
        <path class="cls-3"
            d="m59.62,815.09c-.92-1.36-1.84-2.72-2.76-4.12-.28-.44-.6-.88-.84-1.36,1.16,1.84,2.36,3.68,3.6,5.48Z" />
    </g>
    <g id="Layer_4" data-name="Layer 4">
        <path class="cls-1"
            d="m466.73,28.95v205.09c0,15.99-12.96,28.95-28.95,28.95-8,0-15.23-3.24-20.47-8.48s-8.48-12.48-8.48-20.47V28.95c0-15.99,12.96-28.95,28.95-28.95s28.95,12.96,28.95,28.95Z" />
    </g>
    <g id="Layer_3" data-name="Layer 3">
        <path class="cls-1"
            d="m353.28,313.46c0,8.44-3.68,16.83-10.76,22.55-12.44,10.04-30.67,8.12-40.71-4.32l-121.84-150.59c-10.04-12.4-8.12-30.63,4.32-40.71,12.44-10.04,30.67-8.12,40.71,4.32l121.84,150.55c4.32,5.36,6.44,11.8,6.44,18.19Z" />
    </g>
    <g id="Layer_2" data-name="Layer 2">
        <path class="cls-1"
            d="m695.57,181.1l-121.84,150.59c-10.04,12.44-28.27,14.36-40.71,4.32-7.08-5.72-10.76-14.12-10.76-22.55,0-6.4,2.12-12.84,6.44-18.19l121.84-150.55c10.04-12.44,28.27-14.36,40.71-4.32,12.44,10.08,14.36,28.31,4.32,40.71Z" />
    </g>
</svg>