<svg width="20" height="20" viewBox="0 0 20 20" fill="none" xmlns="http://www.w3.org/2000/svg">
    <path
        d="M10 7C9.20435 7 8.44129 7.31607 7.87868 7.87868C7.31607 8.44129 7 9.20435 7 10C7 10.7956 7.31607 11.5587 7.87868 12.1213C8.44129 12.6839 9.20435 13 10 13C10.7956 13 11.5587 12.6839 12.1213 12.1213C12.6839 11.5587 13 10.7956 13 10C13 9.20435 12.6839 8.44129 12.1213 7.87868C11.5587 7.31607 10.7956 7 10 7ZM10 5C11.3261 5 12.5979 5.52678 13.5355 6.46447C14.4732 7.40215 15 8.67392 15 10C15 11.3261 14.4732 12.5979 13.5355 13.5355C12.5979 14.4732 11.3261 15 10 15C8.67392 15 7.40215 14.4732 6.46447 13.5355C5.52678 12.5979 5 11.3261 5 10C5 8.67392 5.52678 7.40215 6.46447 6.46447C7.40215 5.52678 8.67392 5 10 5ZM16.5 4.75C16.5 5.08152 16.3683 5.39946 16.1339 5.63388C15.8995 5.8683 15.5815 6 15.25 6C14.9185 6 14.6005 5.8683 14.3661 5.63388C14.1317 5.39946 14 5.08152 14 4.75C14 4.41848 14.1317 4.10054 14.3661 3.86612C14.6005 3.6317 14.9185 3.5 15.25 3.5C15.5815 3.5 15.8995 3.6317 16.1339 3.86612C16.3683 4.10054 16.5 4.41848 16.5 4.75ZM10 2C7.526 2 7.122 2.007 5.971 2.058C5.187 2.095 4.661 2.2 4.173 2.39C3.76462 2.53994 3.39541 2.78026 3.093 3.093C2.78001 3.3954 2.53935 3.76458 2.389 4.173C2.199 4.663 2.094 5.188 2.058 5.971C2.006 7.075 1.999 7.461 1.999 10C1.999 12.475 2.006 12.878 2.057 14.029C2.094 14.812 2.199 15.339 2.388 15.826C2.558 16.261 2.758 16.574 3.09 16.906C3.427 17.242 3.74 17.443 4.17 17.609C4.664 17.8 5.19 17.906 5.97 17.942C7.074 17.994 7.46 18 9.999 18C12.474 18 12.877 17.993 14.028 17.942C14.81 17.905 15.336 17.8 15.825 17.611C16.233 17.4603 16.6021 17.2201 16.905 16.908C17.242 16.572 17.443 16.259 17.609 15.828C17.799 15.336 17.905 14.81 17.941 14.028C17.993 12.925 17.999 12.538 17.999 10C17.999 7.526 17.992 7.122 17.941 5.971C17.904 5.189 17.798 4.661 17.609 4.173C17.4583 3.76502 17.218 3.39598 16.906 3.093C16.6037 2.77985 16.2345 2.53917 15.826 2.389C15.336 2.199 14.81 2.094 14.028 2.058C12.925 2.006 12.54 2 10 2ZM10 0C12.717 0 13.056 0.00999994 14.123 0.0599999C15.187 0.11 15.913 0.277 16.55 0.525C17.21 0.779 17.766 1.123 18.322 1.678C18.8305 2.1779 19.224 2.78259 19.475 3.45C19.722 4.087 19.89 4.813 19.94 5.878C19.987 6.944 20 7.283 20 10C20 12.717 19.99 13.056 19.94 14.122C19.89 15.187 19.722 15.912 19.475 16.55C19.2246 17.2178 18.8311 17.8226 18.322 18.322C17.822 18.8303 17.2173 19.2238 16.55 19.475C15.913 19.722 15.187 19.89 14.123 19.94C13.056 19.987 12.717 20 10 20C7.283 20 6.944 19.99 5.877 19.94C4.813 19.89 4.088 19.722 3.45 19.475C2.78233 19.2245 2.17753 18.8309 1.678 18.322C1.16943 17.8222 0.77596 17.2175 0.525 16.55C0.277 15.913 0.11 15.187 0.0600002 14.122C0.0120002 13.056 0 12.717 0 10C0 7.283 0.0100002 6.944 0.0600002 5.878C0.11 4.812 0.277 4.088 0.525 3.45C0.775236 2.78218 1.1688 2.17732 1.678 1.678C2.17767 1.16923 2.78243 0.775729 3.45 0.525C4.087 0.277 4.812 0.11 5.877 0.0599999C6.944 0.0129999 7.283 0 10 0Z"
        fill="#242424" />
</svg>