<svg width="21" height="18" viewBox="0 0 21 18" fill="none" xmlns="http://www.w3.org/2000/svg">
    <path fill-rule="evenodd" clip-rule="evenodd"
        d="M20.8398 2.05593C20.8834 1.79125 20.8552 1.51971 20.7582 1.26961C20.6612 1.01951 20.4989 0.799995 20.2883 0.633943C20.0776 0.46789 19.8262 0.361374 19.5604 0.325492C19.2945 0.28961 19.0239 0.325675 18.7768 0.42993L1.67678 7.62993C0.484783 8.13193 0.423783 9.85593 1.67678 10.3759C2.9175 10.8934 4.1763 11.3663 5.45078 11.7939C6.61878 12.1799 7.89278 12.5369 8.91378 12.6379C9.19278 12.9719 9.54378 13.2929 9.90178 13.5879C10.4488 14.0379 11.1068 14.5009 11.7868 14.9449C13.1488 15.8349 14.6598 16.6859 15.6778 17.2399C16.8948 17.8999 18.3518 17.1399 18.5698 15.8129L20.8398 2.05593ZM3.59378 8.99193L18.7178 2.62493L16.5998 15.4649C15.6008 14.9219 14.1618 14.1089 12.8798 13.2709C12.2889 12.8916 11.7185 12.4813 11.1708 12.0419C11.0244 11.9224 10.8823 11.7976 10.7448 11.6679L14.7058 7.70793C14.8934 7.52042 14.9989 7.26605 14.999 7.00078C14.9991 6.73551 14.8938 6.48107 14.7063 6.29343C14.5188 6.10579 14.2644 6.00032 13.9991 6.00023C13.7339 6.00013 13.4794 6.10542 13.2918 6.29293L8.95478 10.6299C8.22078 10.5359 7.19878 10.2639 6.07678 9.89393C5.24148 9.61567 4.41284 9.31489 3.59378 8.99193Z"
        fill="#242424" />
</svg>